<svg xmlns="http://www.w3.org/2000/svg" xmlns:xlink="http://www.w3.org/1999/xlink" viewBox="0 0 375.44 487.44"><defs><style>.cls-1{isolation:isolate;}.cls-2{fill:#943c25;}.cls-10,.cls-11,.cls-12,.cls-14,.cls-15,.cls-16,.cls-17,.cls-18,.cls-19,.cls-2,.cls-21,.cls-22,.cls-23,.cls-24,.cls-25,.cls-26,.cls-28,.cls-29,.cls-3,.cls-30,.cls-31,.cls-32,.cls-33,.cls-39,.cls-4,.cls-40,.cls-41,.cls-42,.cls-43,.cls-44,.cls-45,.cls-46,.cls-48,.cls-49,.cls-5,.cls-50,.cls-51,.cls-52,.cls-53,.cls-54,.cls-55,.cls-56,.cls-57,.cls-58,.cls-59,.cls-6,.cls-60,.cls-7,.cls-8,.cls-9{fill-rule:evenodd;}.cls-3{fill:#cc5628;}.cls-4{fill:#b13b23;}.cls-5{fill:#e9e3d9;}.cls-6{fill:#8e2827;}.cls-10,.cls-12,.cls-34,.cls-37,.cls-41,.cls-42,.cls-47,.cls-53,.cls-54,.cls-57,.cls-6,.cls-9{mix-blend-mode:multiply;}.cls-7{fill:#991e23;}.cls-8{fill:#963e26;}.cls-10,.cls-37,.cls-41,.cls-42,.cls-9{opacity:0.55;}.cls-9{fill:url(#名称未設定グラデーション_6);}.cls-10{fill:url(#名称未設定グラデーション_6-2);}.cls-11{fill:#e5e5e5;}.cls-12,.cls-13,.cls-23,.cls-47,.cls-53,.cls-54,.cls-57{opacity:0.3;}.cls-12{fill:url(#名称未設定グラデーション_6-3);}.cls-13,.cls-33,.cls-58,.cls-59,.cls-60{fill:#492610;}.cls-14,.cls-27{fill:#c9e3f2;}.cls-15,.cls-20,.cls-44{fill:#fff;}.cls-16{fill:#eac42a;}.cls-17{fill:#e58121;}.cls-18{fill:#f5cd2c;}.cls-19{fill:#5d3117;}.cls-21{fill:#f6af2b;}.cls-22{opacity:0.2;fill:url(#名称未設定グラデーション_13);}.cls-22,.cls-23,.cls-25,.cls-29,.cls-40{mix-blend-mode:color-burn;}.cls-23{fill:url(#名称未設定グラデーション_17);}.cls-24{fill:#48190e;}.cls-25,.cls-29,.cls-40{opacity:0.52;}.cls-25{fill:url(#名称未設定グラデーション_13-2);}.cls-26{fill:#f7de73;}.cls-28{fill:#9a4824;}.cls-29{fill:url(#名称未設定グラデーション_13-3);}.cls-30{fill:#f5b529;}.cls-31{fill:#532b13;}.cls-32{fill:#cf6363;}.cls-35{fill:#ddd;}.cls-36,.cls-55{fill:#f19798;}.cls-38{fill:url(#名称未設定グラデーション_6-4);}.cls-39{fill:#33160e;}.cls-40{fill:url(#名称未設定グラデーション_13-4);}.cls-41{fill:url(#名称未設定グラデーション_6-5);}.cls-42{fill:url(#名称未設定グラデーション_6-6);}.cls-43{fill:#e07e7d;}.cls-44{opacity:0.58;}.cls-45{fill:#532a13;}.cls-46{fill:#f0efef;}.cls-48{fill:url(#名称未設定グラデーション_6-7);}.cls-49{fill:url(#名称未設定グラデーション_6-8);}.cls-50{fill:url(#名称未設定グラデーション_6-9);}.cls-51,.cls-52{fill:#36505d;}.cls-51{opacity:0.83;}.cls-53{fill:url(#名称未設定グラデーション_6-10);}.cls-54{fill:url(#名称未設定グラデーション_6-11);}.cls-56{fill:#887329;}.cls-57{fill:url(#名称未設定グラデーション_45);}.cls-58{opacity:0.11;}.cls-59{opacity:0.25;}.cls-60{opacity:0.6;}.cls-61{fill:#040000;}</style><linearGradient id="名称未設定グラデーション_6" x1="271.33" y1="212.91" x2="282.03" y2="212.91" gradientUnits="userSpaceOnUse"><stop offset="0" stop-color="#fff"/><stop offset="1" stop-color="#a9492e"/></linearGradient><linearGradient id="名称未設定グラデーション_6-2" x1="256.73" y1="214.24" x2="265.11" y2="214.24" xlink:href="#名称未設定グラデーション_6"/><linearGradient id="名称未設定グラデーション_6-3" x1="386.38" y1="447.89" x2="408.08" y2="447.89" xlink:href="#名称未設定グラデーション_6"/><linearGradient id="名称未設定グラデーション_13" x1="368.63" y1="430.76" x2="371.61" y2="449.85" gradientUnits="userSpaceOnUse"><stop offset="0" stop-color="#fff"/><stop offset="0.14" stop-color="#e9d1ca"/><stop offset="0.29" stop-color="#d6a89b"/><stop offset="0.44" stop-color="#c68674"/><stop offset="0.59" stop-color="#b96b55"/><stop offset="0.73" stop-color="#b0583f"/><stop offset="0.87" stop-color="#ab4d32"/><stop offset="1" stop-color="#a9492e"/></linearGradient><linearGradient id="名称未設定グラデーション_17" x1="305.73" y1="460.25" x2="305.73" y2="515.1" gradientUnits="userSpaceOnUse"><stop offset="0" stop-color="#fff"/><stop offset="0.01" stop-color="#f7edea"/><stop offset="0.05" stop-color="#e4c7bf"/><stop offset="0.09" stop-color="#d4a598"/><stop offset="0.13" stop-color="#c78877"/><stop offset="0.17" stop-color="#bc715c"/><stop offset="0.22" stop-color="#b45f48"/><stop offset="0.27" stop-color="#ae5339"/><stop offset="0.34" stop-color="#aa4b31"/><stop offset="0.44" stop-color="#a9492e"/></linearGradient><linearGradient id="名称未設定グラデーション_13-2" x1="212.22" y1="327.99" x2="250.86" y2="327.99" xlink:href="#名称未設定グラデーション_13"/><linearGradient id="名称未設定グラデーション_13-3" x1="265.58" y1="365.9" x2="359.83" y2="365.9" xlink:href="#名称未設定グラデーション_13"/><linearGradient id="名称未設定グラデーション_6-4" x1="366.75" y1="244.02" x2="407.94" y2="244.02" xlink:href="#名称未設定グラデーション_6"/><linearGradient id="名称未設定グラデーション_13-4" x1="252.35" y1="317.16" x2="328.85" y2="317.16" xlink:href="#名称未設定グラデーション_13"/><linearGradient id="名称未設定グラデーション_6-5" x1="393.63" y1="361.55" x2="415.39" y2="361.55" xlink:href="#名称未設定グラデーション_6"/><linearGradient id="名称未設定グラデーション_6-6" x1="397.11" y1="392.76" x2="415.44" y2="392.76" xlink:href="#名称未設定グラデーション_6"/><linearGradient id="名称未設定グラデーション_6-7" x1="416.41" y1="520.78" x2="377.09" y2="518.59" xlink:href="#名称未設定グラデーション_6"/><linearGradient id="名称未設定グラデーション_6-8" x1="356.42" y1="333.38" x2="369.15" y2="333.38" xlink:href="#名称未設定グラデーション_6"/><linearGradient id="名称未設定グラデーション_6-9" x1="348.73" y1="348.6" x2="361.48" y2="348.6" xlink:href="#名称未設定グラデーション_6"/><linearGradient id="名称未設定グラデーション_6-10" x1="327.59" y1="526.09" x2="348.04" y2="526.09" xlink:href="#名称未設定グラデーション_6"/><linearGradient id="名称未設定グラデーション_6-11" x1="449.94" y1="450.93" x2="432.43" y2="460.78" xlink:href="#名称未設定グラデーション_6"/><linearGradient id="名称未設定グラデーション_45" x1="385.96" y1="184.66" x2="390.73" y2="177.56" gradientTransform="translate(23.19 27.01) rotate(6)" gradientUnits="userSpaceOnUse"><stop offset="0" stop-color="#fff"/><stop offset="1" stop-color="#525326"/></linearGradient></defs><title>fukuiraptor_wapuu</title><g class="cls-1"><g id="レイヤー_1" data-name="レイヤー 1"><path class="cls-2" d="M260,609.77c.62.09.63.41,1.26,0a2.82,2.82,0,0,0,.79-1,7.88,7.88,0,0,0,.45-1.2c.09-.36,0-.81.11-1.27s.07-.79.12-1.25.28-.79.32-1.24,0-.81,0-1.21.1-.8.08-1.21-.28-.77-.32-1.18,0-.79-.08-1.19-.1-.79-.17-1.19-.11-.78-.18-1.18-.11-.79-.19-1.19-.33-.74-.41-1.13,0-.81-.09-1.21-.05-.8-.14-1.2-.21-.77-.3-1.16-.15-.78-.23-1.18-.26-.76-.34-1.16-.15-.78-.23-1.18-.27-.76-.34-1.16,0-.81,0-1.21-.37-.75-.43-1.15.05-.81,0-1.22-.11-.78-.16-1.19-.24-.77-.29-1.18-.12-.79-.16-1.19,0-.8,0-1.21.14-.8.11-1.21-.24-.78-.26-1.19.05-.8,0-1.2-.08-.8-.09-1.2,0-.8,0-1.21.19-.79.2-1.2-.07-.8-.06-1.21,0-.79.05-1.2,0-.79.07-1.2-.16-.81-.13-1.21.35-.78.38-1.19-.16-.81-.12-1.21.21-.79.25-1.2-.05-.81,0-1.22a3.16,3.16,0,0,0,.11-1.19,10.51,10.51,0,0,0-.34-1.16c-.13-.37-.44-.68-.6-1.06s-.39-.69-.56-1-.24-.79-.41-1.14-.33-.75-.51-1.08-.44-.73-.62-1c-.35-.63-.31-.5-.61-1s-.48-.69-.65-1.06-.39-.74-.53-1.11-.14-.83-.25-1.22-.31-.78-.38-1.18,0-.83-.08-1.23,0-.82,0-1.23,0-.81,0-1.22.05-.81.09-1.21-.07-.85,0-1.24.14-.82.23-1.21.22-.81.33-1.19.25-.79.37-1.17.27-.79.41-1.15.42-.75.57-1.09.19-.89.35-1.2c.34-.68.1-.82.63-1.12.4,0,.87.11,1.29.14s.81,0,1.22,0l1.22.08c.4,0,.79.21,1.2.24l1.22.07c.4,0,.81,0,1.22.06s.79.21,1.2.24l1.22.06c.41,0,.82-.11,1.23-.09s.82,0,1.23,0,.8.22,1.21.24.82-.12,1.23-.1.81.11,1.22.13.81,0,1.22,0h1.23c.4,0,.81.08,1.22.09s.81.16,1.22.16.82-.2,1.23-.2.81.09,1.23.08.8-.05,1.21-.06.81,0,1.22,0,.82.16,1.23.15.81-.17,1.22-.19.82.16,1.23.13.81-.09,1.22-.12.81-.16,1.22-.19.82,0,1.23,0,.82,0,1.23,0,.79-.26,1.2-.3.83.06,1.24,0,.81-.12,1.22-.17.79-.19,1.2-.25.83.05,1.24,0l1.22-.15a6.16,6.16,0,0,0,1.2-.15,6.28,6.28,0,0,0,1.19-.24,8.77,8.77,0,0,0,1.11-.47,9.87,9.87,0,0,0,1.11-.49,11.37,11.37,0,0,0,1.06-.6c.32-.22.57-.55.9-.81s.78-.31,1.08-.59.57-.57.86-.86.41-.72.68-1,.67-.48.94-.8.52-.61.77-.93.4-.71.64-1,.43-.67.66-1,.38-.71.6-1.06.39-.69.6-1,.62-.57.82-.93.3-.75.49-1.11.42-.69.59-1.06.12-.83.29-1.2.44-.69.59-1.07.19-.79.34-1.16.52-.67.66-1.05.13-.81.26-1.19.37-.73.49-1.11.25-.77.36-1.16.06-.83.16-1.22.1-.8.19-1.2.23-.77.31-1.17.2-.78.27-1.18.09-.8.15-1.2.24-.78.3-1.18.18-.8.22-1.2.09-.81.12-1.21-.18-.82-.16-1.23.18-.8.19-1.2-.11-.81-.11-1.22,0-.8,0-1.21.1-.81.07-1.22,0-.81,0-1.22-.28-.78-.33-1.18,0-.83,0-1.23-.21-.78-.28-1.18-.12-.8-.21-1.2-.33-.75-.43-1.14-.2-.78-.31-1.17-.17-.79-.29-1.18-.22-.78-.36-1.16-.18-.8-.33-1.17-.49-.67-.66-1-.21-.8-.39-1.16-.29-.76-.48-1.12-.42-.69-.63-1-.52-.63-.74-1-.48-.65-.72-1-.43-.69-.67-1-.45-.68-.71-1-.69-.46-1-.76-.46-.66-.74-1-.55-.59-.85-.87-.53-.61-.83-.88-.67-.46-1-.72-.56-.58-.88-.83-.61-.55-.94-.79-.64-.49-1-.72-.78-.27-1.13-.49-.66-.46-1-.67-.63-.53-1-.73-.83-.16-1.19-.34-.64-.52-1-.7-.75-.31-1.12-.47-.79-.2-1.17-.35-.65-.55-1-.7-.85,0-1.24-.15-.75-.27-1.14-.4-.7-.45-1.09-.57-.78-.2-1.17-.32-.83-.05-1.22-.15-.73-.4-1.13-.5-.83,0-1.23-.08-.76-.35-1.16-.43c-.6,0-.41.12-1.18.3l-1.18.27c-.35.08-.71.3-1.14.41l-1.18.26c-.37.09-.78.14-1.19.24s-.81,0-1.21.13-.73.35-1.14.45-.81,0-1.21.13-.71.43-1.11.53-.81.06-1.21.17l-1.17.32c-.38.11-.78.2-1.17.3s-.8.12-1.2.22-.74.32-1.13.43-.79.17-1.18.28l-1.16.34c-.38.11-.76.25-1.15.36s-.73.37-1.12.48-.79.18-1.18.29-.84,0-1.23.12-.72.4-1.11.51-.78.2-1.17.32-.81.11-1.2.23-.75.3-1.13.42-.78.2-1.17.32-.7.45-1.09.57-.79.18-1.17.31l-1.16.36c-.38.12-.82.08-1.2.21s-.76.29-1.14.42-.76.3-1.14.43-.73.38-1.11.51-.8.17-1.18.31-.75.32-1.13.46-.82.12-1.2.26-.7.45-1.08.59-.75.32-1.13.47-.79.2-1.17.35-.8.18-1.18.32-.71.43-1.08.58-.72.39-1.09.55l-1.13.45c-.38.16-.85.09-1.22.25s-.68.47-1,.63-.75.31-1.12.48-.72.38-1.08.55-.82.17-1.18.35-.72.38-1.08.56-.74.33-1.1.52-.67.48-1,.67-.72.37-1.07.57-.66.48-1,.68-.68.44-1,.65-.84.2-1.17.42-.65.5-1,.72-.68.46-1,.7-.63.52-.94.77-.64.51-.93.78-.68.48-1,.76-.49.67-.74,1a9.91,9.91,0,0,0-.7,1c-.26.33-.57.61-.81.93s-.54.63-.77,1-.32.78-.54,1.11-.6.6-.81.94-.3.78-.51,1.13-.61.59-.81.94-.17.85-.36,1.2-.5.67-.68,1-.4.72-.57,1.08-.28.78-.43,1.15-.3.77-.44,1.15-.38.73-.51,1.12-.18.81-.29,1.19-.32.77-.41,1.16-.23.8-.31,1.19-.12.82-.19,1.22,0,.83-.06,1.23-.14.81-.16,1.21.09.83.08,1.23-.18.83-.17,1.23.24.81.27,1.2-.15.85-.1,1.24.17.82.25,1.21.38.76.49,1.14.09.84.23,1.2a10.25,10.25,0,0,0,.54,1.1,8.16,8.16,0,0,0,.58,1.07,4,4,0,0,1,.57,1.09c.11.33.13.75.24,1.2s.27.74.36,1.18.11.79.19,1.22.14.79.21,1.21.19.79.26,1.21.17.79.23,1.2,0,.82.12,1.23.21.79.27,1.21.08.81.14,1.22.13.8.19,1.22.11.8.17,1.22-.14.84-.08,1.25.16.8.22,1.21.15.81.21,1.22.07.81.13,1.22.36.77.42,1.18.12.81.19,1.22.06.81.12,1.22.06.82.12,1.23.15.8.21,1.21,0,.83.07,1.23.3.78.37,1.19.08.82.14,1.23l.21,1.21c.06.4.06.82.13,1.23s.08.81.15,1.22l.21,1.21c.07.41.37.77.44,1.18s.14.81.21,1.22,0,.84.06,1.25c.09.61.23.44.29,1.22,0,.35,0,.77.07,1.24s.11.79.14,1.23,0,.81,0,1.24-.13.82-.12,1.24.13.82.13,1.24-.07.82-.08,1.24.11.83.09,1.24-.15.82-.17,1.24-.06.83-.09,1.24,0,.83,0,1.24-.11.83-.17,1.24-.26.8-.34,1.2.1.88,0,1.27-.4.77-.52,1.15-.25.8-.4,1.17a9.32,9.32,0,0,1-.59,1.09c-.21.35-.48.66-.68,1s-.36.73-.56,1.07-.24.81-.44,1.15-.55.62-.75,1-.29.77-.48,1.12-.42.69-.61,1-.43.7-.62,1-.32.75-.5,1.1-.42.71-.6,1.06-.5.66-.67,1-.13.84-.3,1.2-.44.7-.6,1.06-.36.74-.51,1.1-.33.75-.47,1.11-.12.83-.25,1.2-.42.73-.53,1.11-.11.82-.2,1.2-.13.8-.19,1.18-.28.79-.31,1.18a9.32,9.32,0,0,0,.14,1.21,8.43,8.43,0,0,0-.07,1.21,7.14,7.14,0,0,0,.37,1.16,7,7,0,0,0,.46,1.13,6.4,6.4,0,0,0,.85.88c.28.3.58.57.88.85s.64.5,1,.75.66.47,1,.69.6.59.95.79.83.21,1.19.38.69.47,1.06.62.77.35,1.14.47.84.1,1.22.19.81.36,1.18.4a5.54,5.54,0,0,0,1.24,0c.6,0,1-.32,1-.63.22-.57.16-.6.42-1.16s.33-.53.59-1.08.35-.52.61-1.08.07-.65.33-1.21.48-.45.75-1,.25-.56.52-1.12.23-.58.49-1.14.08-.66.47-1.14a1.25,1.25,0,0,1,.83.86,6.66,6.66,0,0,1,.42,1.2c.08.38-.12.84-.06,1.28s.17.81.21,1.24.06.83.1,1.25.09.83.13,1.25.26.83.3,1.24.09.85.15,1.25.06.86.14,1.24a6.86,6.86,0,0,0,.34,1.19c.21.49.37.91.69,1a7.92,7.92,0,0,0,1.2.47c.34.12.75.25,1.23.37a12,12,0,0,0,1.26.23c.39.06.83-.05,1.28,0s.83.28,1.28.28.84,0,1.28,0,.84-.15,1.28-.21.83-.15,1.27-.24A2.8,2.8,0,0,0,239,613a4.59,4.59,0,0,0,.76-1,8.36,8.36,0,0,0,.54-1.08c.17-.34.42-.66.58-1.05s.21-.77.35-1.15.43-.69.57-1.08.09-.81.23-1.19.34-.74.48-1.11.26-.77.42-1.14.47-.67.65-1a11.29,11.29,0,0,1,.5-1.11,10.38,10.38,0,0,1,.71-1,.82.82,0,0,1,1.18-.09c.24.2.33.64.54,1.08a9.32,9.32,0,0,1,.49,1.09c.12.37.44.7.55,1.1s.17.79.26,1.19.19.8.27,1.19.18.81.25,1.19.14.85.2,1.19c.12.72-.36.77,0,1.28s.49.22,1.17.53c.32.15.71.28,1.14.43s.78.13,1.2.22a4.51,4.51,0,0,0,2.41.31,10.73,10.73,0,0,0,1.19-.22,7.29,7.29,0,0,0,1.2-.19,9,9,0,0,0,1.11-.5,8.62,8.62,0,0,0,1.08-.57A8.82,8.82,0,0,0,260,609.77Z" transform="translate(-122.54 -163.34)"/><path class="cls-3" d="M420.81,348.19c0-.46.24-.91.23-1.36s-.32-.91-.32-1.36.22-.91.22-1.36l0-1.36c0-.45-.11-.9-.12-1.35s.16-.91.15-1.37-.3-.9-.31-1.35.19-.91.17-1.36.24-.92.22-1.37-.44-.9-.46-1.35,0-.91,0-1.36.21-.92.19-1.37,0-.91,0-1.36-.44-.89-.46-1.34,0-.91-.07-1.36.34-.93.32-1.38-.24-.9-.27-1.36.06-.91,0-1.36.16-.93.13-1.38-.2-.9-.23-1.35-.43-.88-.46-1.34.2-.92.16-1.37-.16-.9-.19-1.35.16-.93.12-1.38-.34-.88-.37-1.33.09-.92.05-1.37-.07-.91-.11-1.36.07-.92,0-1.37-.14-.9-.18-1.35-.23-.89-.27-1.34-.22-.89-.27-1.34.08-.92,0-1.37-.34-.88-.39-1.33.18-.93.14-1.38-.26-.89-.31-1.34.07-.92,0-1.37,0-.92,0-1.36-.19-.9-.25-1.35-.21-.88-.26-1.33-.13-.9-.18-1.35,0-.92,0-1.37-.27-.88-.32-1.33-.1-.9-.16-1.35.19-1,.13-1.4-.3-.88-.37-1.33-.37-.87-.43-1.31.3-1,.24-1.41-.36-.87-.42-1.32-.18-.89-.24-1.34.18-.95.11-1.39-.35-.87-.42-1.31-.35-.87-.43-1.31-.14-.89-.22-1.33-.27-.88-.35-1.32.34-1,.26-1.42-.53-.84-.61-1.27-.2-.89-.29-1.33,0-.92-.12-1.36-.29-.87-.39-1.3,0-.93-.11-1.37-.27-.87-.37-1.31-.33-.85-.44-1.28,0-.94-.15-1.36-.35-.86-.47-1.28-.39-.83-.52-1.24.09-.91,0-1.33a10.56,10.56,0,0,1-.14-1.26c0-.42-.14-.85-.12-1.27a11.17,11.17,0,0,1,.24-1.26c.08-.41.17-.82.29-1.23s.45-.82.55-1.28,0-.92.05-1.38-.08-.9-.05-1.37-.11-.89-.11-1.35.37-.91.34-1.37,0-.91-.06-1.36-.29-.88-.37-1.33-.29-.86-.4-1.31-.15-.89-.28-1.32-.3-.86-.46-1.28-.18-.92-.37-1.33-.59-.72-.81-1.12-.51-.74-.75-1.13-.53-.72-.8-1.09-.22-1-.52-1.33-.75-.54-1.07-.88-.53-.75-.87-1.06-.78-.49-1.14-.77-.86-.35-1.23-.61-.59-.74-1-1-.95-.14-1.35-.36-.71-.57-1.13-.76-.75-.54-1.17-.71-.91-.13-1.35-.28-.81-.38-1.26-.51-.8-.49-1.25-.6-.93,0-1.38-.06-.85-.36-1.31-.44-.93.14-1.39.07-.84-.54-1.3-.58-.92.09-1.38.06-.92.34-1.38.32-.89-.12-1.35-.13-.9-.26-1.36-.25-.91-.16-1.37-.14-.9.25-1.36.28-.91,0-1.37.05a3.16,3.16,0,0,1-1.27-.35,5.51,5.51,0,0,1-1.31-.34,11,11,0,0,1-1.15-.74c-.34-.25-.69-.54-1.06-.84s-.71-.55-1.06-.85-.51-.78-.86-1.09-.7-.56-1.05-.86-.72-.54-1.07-.84-.78-.47-1.13-.76-.57-.73-.94-1-.86-.35-1.23-.62-.7-.56-1.08-.82-.71-.56-1.1-.8-.76-.48-1.16-.71-.75-.5-1.16-.71-.9-.21-1.32-.41-.81-.38-1.23-.56-.74-.58-1.18-.74-1,.1-1.42,0-.77-.57-1.21-.68-.91-.06-1.36-.15-.87-.27-1.32-.34-.92.07-1.38,0-.87-.34-1.32-.37-.91,0-1.37,0l-1.36,0c-.4,0-.85.07-1.34.08s-.86.19-1.33.2-.88-.41-1.35-.4-.87.25-1.34.25h-1.34c-.43,0-.88,0-1.34,0s-.88.13-1.34.13-.88-.19-1.34-.2-.89.27-1.34.26-.88-.39-1.34-.4-.89.17-1.34.15-.89-.1-1.34-.12-.89,0-1.34,0l-1.34-.08c-.44,0-.9.14-1.35.11s-.88-.18-1.33-.21-.88,0-1.33-.09-.9,0-1.34,0-.87-.31-1.32-.36-.89-.05-1.33-.1-.87-.25-1.32-.31-.89-.06-1.34-.11-.9,0-1.34,0-.88-.15-1.32-.22-.87-.22-1.32-.29-.92.11-1.36,0-.87-.24-1.31-.31-.86-.28-1.31-.36-.93.08-1.37,0-.9-.3-1.35-.37-.93-.06-1.38-.11-.92-.34-1.37-.37-.94-.1-1.39-.11-.94.16-1.4.17-.93,0-1.39,0-.93.08-1.38.12-.93.05-1.39.1-.89.37-1.35.42-.91.15-1.38.2a11.55,11.55,0,0,1-1.3-.1,9,9,0,0,1-1.27-.18,11,11,0,0,1-1.29-.1c-.41-.11-.77-.4-1.17-.55a10.67,10.67,0,0,1-1.27-.3c-.38-.2-.62-.63-1-.88a7.6,7.6,0,0,1-1.06-.72c-.36-.33-.54-.8-.86-1.1a9.44,9.44,0,0,0-1.18-.76,4.44,4.44,0,0,0-1.19-.7c-.4-.13-.87.1-1.38.09a6.45,6.45,0,0,0-1.37-.11,13.2,13.2,0,0,0-1.34.34,13.73,13.73,0,0,0-1.38.26c-.4.15-.72.59-1.17.79s-.84.31-1.28.52-.71.57-1.14.79-.88.25-1.31.48-.74.54-1.16.77a5.86,5.86,0,0,1-1.42.33,6.33,6.33,0,0,1-1.38.39,8.79,8.79,0,0,1-1.44-.1c-.46-.06-1,0-1.43-.13s-.84-.53-1.3-.67-.88-.32-1.33-.48-1,0-1.46-.12-.8-.62-1.25-.77-1-.12-1.4-.24a12.06,12.06,0,0,0-1.38-.28,4.34,4.34,0,0,0-1.35,0,3.74,3.74,0,0,0-1.28.37,4.46,4.46,0,0,0-1.17.74,8.4,8.4,0,0,0-.65,1.23,13,13,0,0,0-.52,1.25c-.2.4-.74.65-.92,1.08s-.43.82-.6,1.24-.09,1-.27,1.36-.24.93-.45,1.32a11.7,11.7,0,0,1-.58,1.11,10.64,10.64,0,0,1-.85.93c-.27.31-.79.37-1.09.65s-.39.82-.72,1.07-.9.11-1.26.31-.57.77-1,1.07-.76.49-1.14.8-.82.47-1.18.78-.61.73-1,1.06-.73.6-1.06.93-.54.79-.85,1.13-.65.7-.94,1-.72.69-1,1-.42.82-.68,1.18-.44.8-.7,1.16-.5.76-.75,1.12-.58.71-.84,1.07-.76.57-1,.93-.42.82-.68,1.17-.67.64-.94,1-.56.72-.82,1.07-.3.92-.56,1.27-.61.68-.88,1-.73.59-1,.94-.5.77-.77,1.12-.57.72-.83,1.07-.49.78-.75,1.13-.46.79-.72,1.14-.74.6-1,.94-.26.95-.51,1.3-.92.49-1.16.85-.23.95-.45,1.31-.52.76-.71,1.15-.12.93-.29,1.34-.57.73-.71,1.16-.1.88-.21,1.33-.59.77-.68,1.23.3.93.23,1.4-.44.82-.5,1.29-.16.86-.21,1.33-.1.89-.13,1.34.21.9.2,1.34-.26.89-.25,1.33.37.87.4,1.32.12.87.17,1.31-.16.91-.1,1.35-.08.91,0,1.35.28.86.37,1.29.16.88.26,1.31.65.75.76,1.18-.07.93.05,1.36.18.88.31,1.3.24.86.38,1.27.2.88.36,1.3.57.74.73,1.14.39.81.56,1.21.51.75.69,1.14.22.89.4,1.28.24.88.43,1.27.44.79.64,1.17.48.77.68,1.14.49.77.7,1.13.5.77.71,1.11.44.69.61,1.05.07.85.2,1.22a26.68,26.68,0,0,0,.65,2.3c.19.66,0,.72.18,1.37s.53.53.76,1.17,0,.73.24,1.37.47.55.7,1.2.21.64.44,1.29,0,.73.19,1.37.25.64.48,1.28.53.53.76,1.17.11.69.34,1.33,0,.72.25,1.36.05.71.28,1.35.43.57.66,1.22.13.67.36,1.31.39.59.62,1.23.27.63.5,1.27.26.63.48,1.28,0,.72.25,1.36.51.54.74,1.18,0,.74.19,1.39.15.67.38,1.31.39.58.62,1.22.42.57.65,1.21.06.71.29,1.35.07.69.3,1.33.24.64.47,1.28.57.52.8,1.16,0,.72.23,1.36.22.65.45,1.29.43.57.66,1.22,0,.71.25,1.36.24.63.47,1.28.33.6.56,1.24.13.68.36,1.32.09.7.31,1.34.24.64.47,1.29.53.53.76,1.17.17.67.4,1.31.19.66.42,1.3.16.67.39,1.31.46.56.69,1.21.11.68.34,1.33.24.64.47,1.28-.11.76.12,1.41.38.59.61,1.23.27.63.5,1.28.2.65.43,1.3.53.53.76,1.18-.09.76.14,1.4.45.57.68,1.21.1.69.32,1.33.21.66.44,1.3.11.69.34,1.33.55.53.78,1.18.33.61.56,1.25,0,.74.2,1.39,0,.72.26,1.36.29.63.52,1.27.49.57.69,1.23a7.52,7.52,0,0,1-.34,1.32c-.09.38.12.9,0,1.38s-.36.8-.51,1.26-.34.8-.5,1.25-.46.77-.63,1.2-.09.92-.26,1.35-.63.7-.81,1.12-.13.91-.31,1.33-.35.82-.53,1.24-.34.82-.52,1.24-.32.84-.5,1.25-.62.71-.8,1.12-.25.87-.43,1.28-.14.93-.32,1.34-.63.7-.82,1.11,0,1-.21,1.38-.7.66-.89,1.07-.21.88-.4,1.29-.43.79-.62,1.2l-.57,1.22c-.19.41-.66.69-.85,1.09s-.27.87-.46,1.28l-.57,1.22c-.19.41-.29.87-.48,1.27s-.54.75-.73,1.15-.3.86-.49,1.26-.29.87-.48,1.27-.5.77-.69,1.17-.1,1-.29,1.36-.67.69-.86,1.09-.41.8-.61,1.2-.49.77-.68,1.17-.15.93-.34,1.33-.36.84-.55,1.24-.59.73-.78,1.12-.2.91-.39,1.31-.33.85-.52,1.25-.4.82-.58,1.21l-.54,1.23c-.2.44-.55.77-.72,1.15s-.15,1-.3,1.34a10.23,10.23,0,0,0-.38,1.26c-.12.37-.56.71-.68,1.2s-.18.84-.27,1.31-.25.84-.33,1.31.07.9,0,1.37-.44.83-.5,1.29-.12.88-.18,1.34.14.91.09,1.37-.23.87-.27,1.33-.26.87-.29,1.33.18.91.15,1.36-.11.89-.14,1.34.14.91.12,1.36-.17.89-.19,1.34,0,.9,0,1.35-.28.89-.3,1.34.29.91.29,1.36-.47.89-.47,1.34.15.9.15,1.36.13.89.14,1.35-.06.89-.06,1.34,0,.9.05,1.35.05.89.06,1.34.22.89.24,1.34-.06.9,0,1.35.25.88.28,1.33,0,.9.06,1.35.06.89.09,1.34.08.9.13,1.34-.19.93-.15,1.37.28.88.33,1.33.27.87.33,1.32.06.89.12,1.34-.27,1-.21,1.39.51.84.58,1.28-.33,1-.25,1.41.45.84.53,1.29.11.89.2,1.33.3.86.39,1.3,0,.92.14,1.36.19.88.29,1.32.52.8.63,1.24-.27,1-.16,1.43.56.79.68,1.22.05.93.18,1.35.62.76.76,1.18.08.93.23,1.35.43.8.59,1.22.44.79.61,1.21.06.95.24,1.36.29.86.47,1.27l.57,1.22c.2.41.71.66.91,1.06s.35.83.55,1.23,0,1,.22,1.42.71.64.93,1,.55.73.77,1.12.18.94.41,1.33.49.76.73,1.14.63.67.87,1.05.54.72.79,1.1.38.83.64,1.2.69.61.95,1,.36.85.62,1.22.67.63.93,1,.33.89.6,1.25.63.66.9,1,.6.67.88,1,.49.77.77,1.12.52.74.81,1.09.79.51,1.09.85.46.8.75,1.14.81.49,1.11.82.32.94.62,1.27.65.63,1,1,.53.75.84,1.07.86.43,1.18.75.6.67.91,1,.75.53,1.07.84.36.93.68,1.24,1,.23,1.35.54.6.69.93,1,.42.88.75,1.17.75.53,1.08.82.86.39,1.2.68.67.61,1,.9.55.75.89,1,.85.4,1.2.68.65.63,1,.9.48.87.83,1.14.84.39,1.2.66.66.63,1,.9.63.68,1,.94.93.26,1.29.52.62.71,1,1,.78.49,1.14.74.81.44,1.17.68.83.41,1.18.64.83.45,1.17.67.69.73,1,.92c.75.46.71.12,1.29.46.27.17.56.34.82.53s.62.5,1,.87.54.68.91,1,.59.65.93,1,.73.52,1.06.87.67.58,1,.93.5.75.79,1.11.35.86.63,1.23.84.49,1.1.87.38.83.62,1.22.47.77.69,1.17.4.81.6,1.22.28.86.46,1.28.28.85.43,1.28.17.88.3,1.32.61.76.71,1.21,0,.91.07,1.37.18.88.22,1.33.15.9.16,1.36.16.91.14,1.37-.14.9-.19,1.35-.17.9-.25,1.35-.51.8-.62,1.25.18,1,0,1.43-.39.82-.56,1.25-.48.77-.68,1.19-.09,1-.3,1.38-.69.65-.92,1-.33.85-.58,1.24-.74.58-1,1-.37.84-.65,1.21-.41.83-.7,1.18-.66.63-1,1-.92.38-1.23.71-.48.79-.8,1.12-.44.83-.78,1.15-.88.37-1.23.67-.42.89-.76,1.19-1.05.15-1.41.45-.62.65-1,.94-.54.78-.91,1.05-.85.36-1.23.63-.75.49-1.12.76-.69.58-1.07.84-.78.45-1.16.71l-1.16.71c-.38.25-.68.61-1.08.85s-.7.59-1.1.82-.85.35-1.24.58-.64.71-1,.93-.86.34-1.24.56-.84.38-1.23.6-.92.23-1.31.45-.76.5-1.15.72-.72.57-1.12.78-.81.41-1.21.62-.67.66-1.07.87-.78.48-1.18.68-.94.16-1.34.36-.74.55-1.14.75-.8.43-1.2.63-.94.14-1.34.33-.86.3-1.27.49-.79.44-1.2.63-.68.7-1.09.88-.9.19-1.31.37-.9.21-1.31.38-.69.71-1.1.87-.9.2-1.32.36-.93.1-1.35.25-.83.37-1.25.52-.88.21-1.3.36-.88.23-1.3.38-.82.41-1.24.55-.88.22-1.31.35-.83.4-1.26.53-.81.45-1.24.57-.9.18-1.33.3-.94,0-1.37.11-.81.47-1.25.58-.91.1-1.34.2-.82.47-1.25.58-1-.16-1.4-.06-.81.56-1.24.65-.93,0-1.37.06-.87.28-1.3.37-1-.12-1.39,0-.82.54-1.26.63-.89.19-1.33.28-.94-.14-1.39,0l-1.32.25c-.45.09-.81.58-1.25.67s-.94-.12-1.38,0-.87.24-1.31.33-.93-.06-1.37,0-.81.52-1.24.62-.93,0-1.37.08-.76.63-1.2.75-.92,0-1.36.13l-1.29.37c-.43.13-.91.1-1.34.23s-.84.32-1.27.46-.93.05-1.36.2-.74.59-1.16.75l-1.25.5c-.41.17-.9.18-1.31.36s-.72.6-1.13.79-.92.15-1.33.35-.72.56-1.12.76-.77.45-1.17.67-.85.31-1.25.53-.69.6-1.08.83-.82.37-1.21.61-.74.5-1.13.74-.8.42-1.18.67-.72.68-1.12.93-.93.37-1.32.63-.6.86-1,1.13-.93.36-1.31.64-1,.35-1.33.65-.65.75-1,1.09-.61.68-.92,1-.58.71-.88,1-.68.63-1,1-.71.61-1,1-.22,1-.49,1.35-.52.75-.78,1.13-.69.64-.93,1-.39.84-.63,1.23-.68.67-.9,1.07-.59.73-.8,1.13-.37.86-.57,1.26-.29.89-.49,1.3-.47.8-.65,1.22-.22.91-.39,1.33-.47.81-.63,1.23-.12.94-.26,1.37-.15.92-.28,1.35-.41.84-.52,1.27-.37.87-.46,1.31,0,.94-.11,1.37-.36.9-.41,1.34,0,1,0,1.39a10.47,10.47,0,0,0,0,1.39,7,7,0,0,0,.21,1.42,3.08,3.08,0,0,0,.92,1.18c.34.28.91,0,1.41,0a3.1,3.1,0,0,0,1.3-.08,6.6,6.6,0,0,0,1.23-.57c.39-.23.91-.24,1.3-.47s.65-.68,1-.91.87-.31,1.25-.54l1.18-.67c.4-.23.76-.51,1.15-.73s.75-.52,1.14-.73.77-.5,1.16-.71.9-.24,1.3-.45.87-.28,1.27-.48.69-.64,1.09-.84.89-.25,1.29-.45.79-.45,1.19-.64.87-.28,1.28-.46.74-.56,1.15-.74.9-.19,1.32-.37.73-.59,1.15-.75.93-.12,1.34-.29.74-.6,1.16-.76.89-.23,1.31-.38.79-.5,1.22-.64.95,0,1.38-.13.83-.37,1.27-.5.93,0,1.36-.15.87-.26,1.3-.37l1.31-.35c.44-.1.83-.37,1.27-.47l1.32-.33c.44-.09.87-.22,1.32-.31s.91,0,1.36-.07.85-.35,1.3-.43.94.17,1.38.1.89-.15,1.34-.21.83-.55,1.28-.61.95.4,1.41.34.86-.34,1.31-.39.91,0,1.36,0,.86-.43,1.31-.47.9,0,1.35-.06.92.16,1.37.11.89-.15,1.34-.19.86-.48,1.32-.51.91.18,1.37.15.9,0,1.35,0,.88-.23,1.34-.26.9,0,1.35,0,.9,0,1.35,0,.89-.2,1.34-.23.91.1,1.36.07.89-.12,1.34-.15.91,0,1.36,0,.91.12,1.36.09.88-.28,1.33-.31.9.07,1.36,0,.87-.28,1.33-.31.91.28,1.36.25.88-.33,1.33-.36.89-.09,1.35-.12l1.34-.1c.45,0,.92.35,1.38.32s.88-.23,1.33-.26.89-.19,1.34-.23.91.11,1.37.08.86-.44,1.32-.47.91.07,1.36,0,.91.1,1.36.07.89-.18,1.35-.22.9,0,1.35,0l1.35-.12c.44,0,.88-.25,1.33-.28s.9,0,1.35,0,.9,0,1.35-.08.89-.11,1.35-.15l1.35-.1,1.35-.11c.45,0,.92.16,1.37.12s.86-.5,1.31-.55.9-.11,1.35-.16.92.16,1.37.12.91,0,1.36,0,.88-.3,1.33-.35.91,0,1.36,0,.91,0,1.36-.07l1.36-.14c.45,0,.88-.27,1.33-.33s.92.11,1.37,0,.85-.42,1.3-.49.9-.07,1.35-.14.89-.12,1.34-.2.88-.17,1.33-.25.89-.15,1.33-.24.87-.27,1.31-.37.9-.13,1.34-.23.92,0,1.36-.14.78-.63,1.21-.74.91-.1,1.35-.22.95,0,1.39-.07.82-.41,1.25-.54.82-.41,1.25-.55.91-.15,1.33-.29l1.29-.44c.43-.14.91-.13,1.34-.29s.79-.48,1.21-.64.78-.49,1.2-.66.9-.17,1.32-.34.82-.37,1.24-.55.74-.56,1.15-.74.94-.11,1.35-.3.79-.45,1.2-.64.9-.22,1.3-.42.77-.49,1.17-.69.69-.64,1.09-.85,1,0,1.41-.23.74-.53,1.14-.75.61-.77,1-1,1,0,1.41-.26.52-.9.9-1.13.87-.32,1.25-.56.9-.26,1.28-.5.81-.42,1.19-.66.78-.47,1.15-.72.58-.77.95-1,.69-.59,1.06-.85.94-.23,1.31-.49.56-.77.92-1,.61-.69,1-1,.81-.42,1.17-.7.89-.33,1.24-.61.66-.63,1-.91.66-.62,1-.9.62-.67,1-1,.74-.52,1.08-.82.62-.67.95-1,.76-.51,1.1-.81.79-.47,1.12-.78.69-.6,1-.9.34-1,.67-1.27.87-.4,1.19-.72.59-.69.91-1l.94-1c.32-.33.66-.62,1-1s.6-.67.91-1,.46-.81.77-1.14.89-.41,1.19-.74.31-.95.61-1.28,1-.34,1.29-.67.49-.77.79-1.11.35-.89.64-1.24.91-.42,1.2-.76.32-.91.61-1.26.42-.82.7-1.17.95-.4,1.23-.76.35-.87.62-1.23.72-.59,1-.95.51-.75.78-1.11.24-.94.51-1.3.59-.69.86-1.05.76-.57,1-.93.24-.94.5-1.31.79-.55,1-.92.59-.69.84-1.06.16-1,.4-1.36.9-.5,1.15-.88.52-.75.76-1.12.2-1,.44-1.34.75-.6,1-1,.39-.82.63-1.21.3-.88.53-1.26.4-.81.63-1.2.62-.68.84-1.07.45-.79.67-1.18.39-.82.61-1.21.31-.86.53-1.25.64-.68.85-1.07.56-.73.77-1.12.18-.93.39-1.33.22-.9.42-1.3.58-.73.77-1.12.74-.65.93-1,.29-.87.48-1.27.34-.85.53-1.24.55-.76.73-1.15.37-.84.55-1.23.24-.9.41-1.29a12,12,0,0,1,.75-1.16,11.1,11.1,0,0,1,.63-1.24,10.67,10.67,0,0,1,.79-1.19,9.49,9.49,0,0,1,1.12-.86,9.24,9.24,0,0,1,1.24-.67,10.54,10.54,0,0,1,1.25-.65,12.28,12.28,0,0,1,1.33-.46l1.31-.34,1.32-.36c.43-.12.91-.1,1.34-.23s.83-.41,1.26-.55,1,.09,1.41-.06.8-.46,1.23-.62.77-.52,1.19-.68.94-.09,1.36-.26.91-.19,1.32-.38.74-.57,1.15-.76.73-.57,1.13-.77,1-.09,1.37-.3.67-.68,1.06-.9.87-.31,1.26-.54.7-.59,1.08-.83.9-.27,1.28-.51.6-.74,1-1,.76-.49,1.12-.76.9-.31,1.25-.59.45-.89.8-1.18.85-.39,1.19-.69.52-.77.85-1.08.85-.41,1.17-.73.56-.72.88-1l.93-1c.31-.33.8-.49,1.1-.83s.44-.82.73-1.17.68-.61,1-1,.31-.9.58-1.26.44-.79.7-1.16.9-.47,1.16-.85.49-.76.74-1.14.24-.91.48-1.29.32-.86.55-1.25.77-.6,1-1,.39-.81.6-1.21.45-.79.65-1.19.43-.8.63-1.21.3-.85.49-1.27.13-.92.31-1.34.64-.71.81-1.13.19-.89.36-1.32.34-.83.5-1.26.49-.78.64-1.2.24-.88.39-1.31.47-.8.6-1.23.06-.93.19-1.36.38-.83.51-1.26.08-.92.2-1.36.1-.91.22-1.35.29-.85.4-1.29.44-.82.55-1.26-.06-1,0-1.38.53-.81.64-1.25,0-.93.06-1.37.08-.91.17-1.35.31-.86.41-1.3.23-.88.32-1.32.21-.88.3-1.33.3-.86.39-1.3.09-.91.18-1.35.42-.84.5-1.29-.16-.95-.07-1.39.42-.84.51-1.29.15-.89.24-1.33.38-.85.46-1.3-.25-1-.16-1.41.23-.88.32-1.32.06-.91.15-1.35.34-.85.43-1.29.25-.87.34-1.31.4-.84.48-1.29,0-.91.09-1.35-.1-.92-.05-1.37.48-.86.51-1.31-.29-.92-.26-1.37.26-.89.27-1.34.1-.9.1-1.35,0-.91,0-1.36-.14-.9-.15-1.35.1-.91.08-1.36-.07-.9-.1-1.35,0-.9,0-1.36-.14-.89-.18-1.34-.31-.87-.36-1.32,0-.91,0-1.36-.32-.86-.39-1.31.11-.93,0-1.37-.35-.86-.43-1.3-.05-.91-.13-1.35-.29-.86-.37-1.3.2-.95.12-1.39-.37-.85-.46-1.29-.31-.85-.4-1.29-.26-.86-.36-1.3-.06-.9-.16-1.34,0-.93-.07-1.37-.16-.89-.26-1.33-.23-.87-.34-1.31-.35-.83-.46-1.27-.43-.82-.54-1.26,0-.93-.07-1.37-.42-.82-.53-1.26-.31-.85-.43-1.28-.18-.88-.3-1.32-.18-.88-.29-1.32,0-.93-.13-1.36-.52-.79-.64-1.22-.17-.89-.29-1.32-.17-.88-.3-1.32-.45-.8-.57-1.24-.11-.9-.23-1.33-.49-.8-.61-1.23,0-.93-.15-1.36-.22-.88-.35-1.31-.16-.89-.28-1.32-.42-.82-.54-1.26-.29-.85-.42-1.28-.18-.89-.3-1.32-.13-.9-.25-1.33-.32-.85-.44-1.28-.43-.82-.55-1.25-.07-.92-.19-1.36.05-.95-.07-1.38-.44-.82-.57-1.25-.21-.88-.33-1.31-.52-.8-.64-1.23-.23-.88-.35-1.31-.21-.88-.33-1.31-.2-.89-.32-1.32-.07-.92-.19-1.35-.3-.86-.42-1.29l-.33-1.31c-.12-.44-.22-.88-.33-1.32s-.41-.83-.52-1.27,0-.92-.14-1.36-.37-.84-.47-1.28.15-1,.05-1.4-.33-.85-.43-1.29-.44-.83-.53-1.27-.19-.88-.28-1.32-.13-.9-.22-1.34-.08-.91-.16-1.35-.21-.88-.29-1.33-.08-.9-.16-1.35,0-.91-.1-1.36-.17-.88-.24-1.33-.24-.87-.31-1.32-.15-.89-.22-1.33-.38-.86-.44-1.31.12-.93.07-1.37-.26-.88-.31-1.33-.07-.9-.12-1.34.06-.92,0-1.37-.24-.88-.28-1.33-.15-.9-.18-1.35.07-.9,0-1.35-.12-.9-.14-1.35.15-.91.14-1.36S420.82,348.63,420.81,348.19Z" transform="translate(-122.54 -163.34)"/><path class="cls-4" d="M286.58,533s16.35,8,9,28.88c-7.09,20.23-53.48,37.73-78.39,42.21-16.36,3-33.65,8.47-42.1,27.61s-4.51,17.46.72,18.37,14.48-9.36,25.75-13.3,72.64-5.07,105.86-12.39,64.2-52.93,69.27-61.38,7.88-21.4,14.59-23.05c43.27-10.67,46.79-58,46.79-58S374.37,551.39,286.58,533Z" transform="translate(-122.54 -163.34)"/><path class="cls-5" d="M227.63,249c.23-.62.41-.35.76-1.13.16-.33.14-.83.36-1.29s.44-.73.66-1.16.45-.73.68-1.14.28-.83.51-1.23.5-.71.73-1.1.51-.71.75-1.1.33-.82.58-1.2.5-.72.75-1.1.71-.57,1-.94.52-.71.79-1.07.39-.8.66-1.16.56-.68.85-1,.57-.67.86-1,.63-.62.92-.95.63-.62.94-1,.57-.67.88-1,.55-.71.88-1,.66-.6,1-.88.79-.46,1.15-.74.63-.67,1-.93.73-.54,1.11-.79.81-.42,1.2-.65.81-.38,1.21-.59.79-.45,1.2-.64.79-.44,1.22-.6.87-.23,1.31-.37.83-.36,1.27-.46a11.94,11.94,0,0,0,1.27-.29c.39-.13.8-.27,1.22-.43s.76-.4,1.18-.57.83-.23,1.24-.41.71-.51,1.12-.68.85-.22,1.25-.37.84-.25,1.24-.4.76-.47,1.17-.6.9-.05,1.31-.16.83-.32,1.24-.4a11.86,11.86,0,0,1,1.3-.12c.45,0,.91-.06,1.36-.08s.91-.06,1.37-.06.91,0,1.37,0,.9.11,1.36.13.9,0,1.36.07.92-.11,1.38-.07.91,0,1.37.05.91.07,1.36.14.87.34,1.32.41.91.07,1.36.15.87.3,1.32.39.95-.1,1.4,0,.83.45,1.28.55.94-.07,1.39,0,.87.23,1.32.34.87.27,1.31.38.84.38,1.28.5.84.36,1.28.48,1-.06,1.4.07.81.48,1.25.61.91.12,1.35.26l1.31.37c.43.14.8.51,1.23.65s.92.13,1.35.28.84.38,1.27.52.89.2,1.33.35.9.18,1.33.33.78.54,1.22.69.89.19,1.33.34.91.13,1.34.27.82.41,1.26.56l1.29.44,1.29.46,1.3.43c.43.15.89.22,1.32.37s.79.51,1.22.66.95.07,1.38.22.76.58,1.2.73.91.14,1.34.29.81.45,1.25.6l1.31.43c.43.15.94.06,1.37.21s.81.46,1.25.61.89.23,1.32.38.78.43,1.19.61.79.37,1.19.59.77.41,1.16.65.81.36,1.18.62.7.54,1.06.82.73.51,1.08.79.62.63,1,.93.73.51,1.07.81.58.68.91,1,.61.64.94.95l1,.92c.31.3.7.55,1,.86s.61.64.92,1l.94.94c.32.31.57.69.89,1s.77.49,1.08.81.71.55,1,.87.42.84.74,1.15.7.57,1,.88.8.45,1.13.76.63.63,1,.93.57.69.91,1,.7.56,1,.85l1,.85c.34.29.74.5,1.09.77s.6.69,1,1,.77.47,1.13.72.71.56,1.08.8.81.38,1.18.58.83.33,1.21.51.72.58,1.11.74.85.28,1.26.41.9.09,1.31.21.79.47,1.21.57.86.18,1.28.28.88.11,1.3.21.84.23,1.26.34.85.21,1.26.34.87.15,1.28.33.82.31,1.21.52.6.68,1,.94.82.33,1.17.62a13,13,0,0,1,1,1,12.46,12.46,0,0,1,.81,1.14,13,13,0,0,1,.82,1.13c.22.4.19.93.38,1.35s.48.79.65,1.23.39.83.55,1.26.33.86.5,1.29.1.95.29,1.38.66.69.88,1.11.18.95.42,1.35.68.64,1,1,.59.69.91,1,.48.79.82,1.12.62.68,1,1,.8.46,1.19.75.76.48,1.16.74.66.67,1.07.91.83.35,1.2.59.69.57,1,.84.79.44,1.12.73.61.66.93,1,.7.56,1,.88.69.59,1,.93.45.79.72,1.14l.79,1.08c.25.37.55.71.78,1.08s.53.73.76,1.11.44.78.65,1.17.21.89.41,1.29.57.72.76,1.12.24.87.41,1.28.35.82.51,1.23.38.82.52,1.23.33.84.47,1.26.07.91.19,1.34.43.81.54,1.23.25.87.35,1.29,0,.93.09,1.35.35.85.44,1.28.14.89.22,1.32.15.89.22,1.32,0,.91.08,1.33.27.89.32,1.3.12.92.16,1.32,0,1,0,1.33c.07.85.36.67.32,1.33s-.21.47-.35,1.31c-.06.37-.27.78-.35,1.29s0,.85-.1,1.32-.2.84-.27,1.31,0,.88,0,1.34-.35.83-.42,1.28.09.9,0,1.35-.34.83-.41,1.28,0,.9,0,1.34-.18.86-.25,1.31-.38.83-.45,1.27.14.92.07,1.36-.26.85-.33,1.29-.08.89-.15,1.33-.15.87-.22,1.31-.17.87-.24,1.31-.15.87-.22,1.31-.34.84-.41,1.28,0,.9-.11,1.34L395,342c-.07.44-.21.87-.28,1.31s-.13.88-.2,1.32-.16.88-.23,1.31-.1.89-.17,1.32-.17.9-.23,1.35-.12.91-.18,1.36-.13.91-.2,1.36,0,.92-.07,1.37-.14.9-.2,1.35.07.93,0,1.38-.17.9-.22,1.36-.27.89-.32,1.34.05.92,0,1.38,0,.92-.06,1.37-.14.91-.18,1.36-.29.9-.32,1.36,0,.91-.06,1.37.09.92.06,1.38-.17.91-.2,1.36,0,.92-.06,1.37,0,.92,0,1.38,0,.91-.05,1.37-.1.91-.12,1.36-.11.92-.12,1.37.18.92.17,1.38-.1.91-.11,1.37.11.92.11,1.37-.22.91-.23,1.37.16.92.16,1.37,0,.92,0,1.37.06.92.06,1.37-.25.92-.25,1.37.26.91.27,1.37,0,.91,0,1.37-.1.91-.09,1.37.17.91.19,1.36-.28.92-.27,1.38.18.91.19,1.36,0,.92,0,1.37.08.91.09,1.36,0,.92.05,1.37-.06.92,0,1.37-.08.92-.06,1.37.34.9.36,1.35,0,.92,0,1.37-.24.92-.22,1.37.34.9.36,1.36-.23.92-.21,1.37.15.91.16,1.36-.07.93-.06,1.38.15.91.17,1.36-.1.93-.09,1.38.26.91.27,1.36-.06.92-.05,1.37-.09.92-.08,1.37.15.91.15,1.36-.08.91-.08,1.36-.06.92-.06,1.37.29.92.29,1.37-.32.91-.33,1.35,0,.92-.05,1.37,0,.91,0,1.36,0,.91-.08,1.36.09.93,0,1.37-.21.91-.27,1.35-.07.92-.15,1.36-.14.91-.24,1.34-.46.83-.58,1.26-.24.88-.4,1.29-.1.88-.28,1.34-.53.73-.71,1.18-.36.79-.54,1.23-.3.83-.48,1.26-.14.91-.32,1.33l-.53,1.25c-.17.4-.51.75-.69,1.17s-.21.88-.39,1.31-.45.78-.64,1.2-.35.82-.53,1.24-.22.89-.4,1.31-.56.73-.75,1.15-.35.82-.53,1.24-.4.81-.58,1.23-.24.88-.42,1.29-.45.79-.63,1.21-.19.89-.37,1.31-.53.75-.71,1.16l-.55,1.23-.54,1.24c-.18.41-.27.87-.45,1.28s-.3.85-.48,1.27-.62.71-.8,1.12-.2.9-.39,1.31-.43.8-.61,1.21-.17.91-.35,1.33-.62.71-.8,1.12-.17.91-.35,1.33-.43.8-.61,1.21-.49.77-.67,1.19-.27.87-.46,1.28-.28.87-.46,1.28-.62.72-.81,1.13-.12.95-.3,1.36-.58.74-.77,1.15-.37.83-.55,1.24-.34.85-.52,1.26-.18.92-.37,1.33-.45.79-.64,1.2-.42.8-.61,1.22-.49.77-.67,1.18-.36.83-.55,1.24-.37.83-.56,1.24-.15.93-.33,1.34-.58.73-.77,1.14-.44.8-.62,1.21-.2.9-.38,1.31-.53.76-.72,1.17-.39.82-.57,1.23-.35.84-.53,1.25-.17.93-.35,1.33-.39.83-.57,1.24l-.56,1.23c-.19.42-.54.76-.72,1.16s-.24.9-.43,1.3-.5.78-.68,1.18-.45.81-.64,1.21-.09,1-.27,1.37-.46.8-.64,1.2-.46.81-.63,1.2-.54.79-.71,1.16-.12,1-.28,1.36c-.36.79-.35.56-.8,1.07-.38.23-.65.59-1,.82s-.86.33-1.24.56-.68.62-1.06.86l-1.13.74c-.38.25-.81.41-1.19.66s-.77.47-1.14.72-.78.47-1.15.71l-1.14.74c-.37.25-.7.57-1.07.82s-.78.46-1.15.71-.71.56-1.08.81-.82.4-1.19.65-.66.64-1,.88-.7.58-1.07.83l-1.14.73c-.38.24-.72.54-1.1.78s-.86.33-1.24.56-.73.53-1.11.76-.79.44-1.18.67-.86.3-1.25.52-.72.55-1.12.76-.86.29-1.26.5-.77.46-1.17.66-.71.59-1.12.78-.81.38-1.23.56-.83.34-1.25.51-.91.12-1.33.28-.79.45-1.22.59-.88.2-1.31.34-.86.24-1.29.36-.85.26-1.29.37-.84.31-1.28.41l-1.32.27c-.44.09-.89.08-1.34.16s-.89.09-1.34.15-.86.29-1.31.34-.9,0-1.35.07-.9,0-1.35,0-.88.21-1.33.23-.9.14-1.35.14-.89-.25-1.35-.25-.89,0-1.34,0-.89,0-1.35,0-.88,0-1.34,0-.88-.09-1.33-.13-.91.09-1.36.05-.88-.21-1.33-.26-.89-.06-1.34-.13-.87-.28-1.32-.35-.91,0-1.35,0-.86-.29-1.3-.37-.91,0-1.35-.12-.84-.4-1.28-.49-.92,0-1.36-.09-.89-.16-1.33-.26-.84-.38-1.28-.49-.87-.21-1.31-.34l-1.29-.39c-.43-.13-.92-.07-1.35-.21s-.77-.52-1.2-.68-.91-.14-1.33-.3-.78-.47-1.19-.65-.89-.22-1.3-.4-.83-.37-1.23-.57-.69-.64-1.09-.85-.81-.38-1.21-.6-.92-.2-1.31-.42-.61-.74-1-1-.79-.44-1.17-.68-.91-.26-1.28-.51-.63-.68-1-.93l-1.1-.8c-.36-.26-.86-.34-1.22-.61l-1.09-.82c-.35-.27-.62-.67-1-1l-1-.88c-.35-.29-.64-.64-1-.93s-.79-.47-1.13-.77-.57-.71-.9-1-.73-.54-1.06-.85l-1-.94-1-.95c-.32-.32-.67-.61-1-.92s-.66-.62-1-.94-.5-.78-.81-1.1-.73-.55-1-.89-.5-.76-.8-1.09-.71-.58-1-.92-.65-.64-.94-1-.42-.83-.71-1.17l-.85-1c-.29-.35-.68-.61-1-1s-.48-.78-.75-1.13-.53-.74-.8-1.09-.56-.71-.83-1.07-.73-.59-1-1-.32-.89-.58-1.25-.71-.61-1-1-.41-.82-.66-1.19-.47-.78-.72-1.14-.46-.79-.7-1.16-.72-.62-1-1l-.73-1.13c-.26-.4-.43-.83-.65-1.19s-.45-.82-.66-1.17-.5-.83-.69-1.16c-.43-.75-.43-.53-.68-1.15s0-.5-.19-1.36c-.09-.37-.22-.8-.34-1.31s-.34-.81-.45-1.29,0-.89-.14-1.36-.26-.85-.35-1.32-.29-.85-.37-1.31,0-.91-.09-1.37-.17-.87-.24-1.33-.26-.87-.34-1.33,0-.9-.12-1.35-.31-.87-.38-1.32.16-.93.09-1.39-.4-.85-.46-1.31,0-.91,0-1.37,0-.91,0-1.37-.39-.86-.44-1.32,0-.91,0-1.37,0-.9,0-1.35-.12-.9-.16-1.35,0-.91-.07-1.36-.18-.89-.21-1.35-.13-.9-.16-1.35.24-.92.22-1.37-.32-.9-.33-1.35-.06-.91-.08-1.36.11-.91.1-1.37.07-.9.06-1.36-.09-.9-.1-1.36.13-.91.13-1.36-.15-.91-.14-1.37.18-.9.2-1.35-.1-.91-.08-1.37-.07-.91-.05-1.37.28-.89.31-1.35-.2-.92-.17-1.37,0-.91,0-1.37.22-.89.25-1.35.18-.89.22-1.35.1-.9.15-1.35.07-.91.12-1.36-.09-.92,0-1.38.34-.87.4-1.32.13-.9.2-1.35-.15-.94-.08-1.39.13-.9.21-1.34.35-.87.43-1.31.21-.89.3-1.33.09-.91.18-1.35.28-.87.38-1.32.16-.89.27-1.33.06-.92.17-1.36.33-.86.44-1.3.24-.87.36-1.31l.36-1.32c.13-.44.1-.92.23-1.35s.44-.82.57-1.26.06-.93.2-1.36.46-.81.61-1.24.34-.85.49-1.27.25-.88.41-1.31.25-.87.41-1.3.5-.78.67-1.2.14-.92.32-1.34.55-.76.73-1.17.27-.88.46-1.29.3-.87.49-1.28.61-.71.81-1.12.39-.83.6-1.23.22-.91.43-1.31.61-.7.83-1.1l.68-1.19c.23-.39.33-.86.56-1.25s.42-.81.66-1.2.49-.77.73-1.15.56-.73.82-1.11.52-.74.76-1.13.41-.81.63-1.21.59-.73.79-1.14.27-.87.45-1.29.25-.88.41-1.31.56-.76.71-1.2.26-.87.39-1.31,0-.94.11-1.39.47-.82.57-1.26.06-.92.15-1.37.3-.87.38-1.32.09-.91.15-1.36.13-.9.18-1.36-.06-.92,0-1.37.16-.9.19-1.36,0-.91,0-1.36-.11-.91-.1-1.37.3-.91.29-1.37-.14-.91-.15-1.36-.23-.9-.26-1.36,0-.91,0-1.37,0-.91,0-1.37-.16-.89-.21-1.35-.16-.89-.22-1.35.08-.92,0-1.37-.08-.91-.15-1.36-.21-.89-.28-1.34-.22-.89-.3-1.34-.06-.92-.15-1.36-.36-.86-.45-1.31-.1-.91-.2-1.35-.18-.9-.28-1.34-.26-.88-.36-1.32-.28-.87-.39-1.31-.18-.9-.29-1.34-.3-.86-.42-1.3-.19-.89-.31-1.33-.17-.9-.3-1.34-.14-.91-.27-1.34-.32-.86-.45-1.29-.27-.88-.41-1.31-.41-.83-.55-1.26-.1-.93-.24-1.36-.53-.78-.67-1.21-.29-.87-.44-1.29,0-1-.19-1.39-.36-.85-.51-1.27-.45-.81-.61-1.23-.24-.89-.41-1.31-.26-.89-.43-1.31-.61-.74-.78-1.15-.12-.95-.29-1.36-.4-.83-.58-1.24-.5-.79-.67-1.2-.29-.89-.47-1.29-.45-.82-.63-1.22-.3-.88-.48-1.28-.5-.8-.68-1.19-.17-1-.35-1.33l-.6-1.23c-.39-.79-.51-.5-.84-1.09s-.18-.44-.6-1.2c-.18-.33-.42-.71-.66-1.17s-.48-.72-.7-1.15-.31-.82-.52-1.25-.4-.78-.6-1.2-.38-.79-.58-1.21-.44-.77-.63-1.19-.29-.84-.47-1.26-.23-.87-.41-1.29-.35-.81-.52-1.24-.43-.79-.59-1.21-.2-.88-.36-1.3-.49-.77-.64-1.2-.07-.92-.22-1.35-.48-.78-.62-1.21-.17-.88-.31-1.31-.38-.82-.51-1.25-.18-.88-.31-1.31-.05-.92-.17-1.35-.41-.81-.52-1.25-.06-.9-.16-1.34-.27-.85-.37-1.29-.38-.83-.47-1.27-.16-.88-.25-1.33.08-.92,0-1.36-.39-.84-.47-1.29-.18-.88-.24-1.32-.1-.9-.15-1.34-.14-.89-.19-1.34-.1-.89-.14-1.34,0-.9,0-1.35-.05-.9-.08-1.35,0-.9,0-1.35.08-.89.08-1.34-.14-.9-.13-1.35,0-.9,0-1.35.21-.88.24-1.33-.24-.91-.2-1.36.32-.88.37-1.32-.09-.91,0-1.36.09-.9.15-1.34.15-.89.23-1.33.21-.87.3-1.32.13-.89.23-1.32.4-.83.51-1.27.09-.9.21-1.33S227.5,249.4,227.63,249Z" transform="translate(-122.54 -163.34)"/><path class="cls-6" d="M363.92,282.49s-58.91-53.42-101.6-44.1c-40,8.73-29.19,49.21-29.19,49.21Z" transform="translate(-122.54 -163.34)"/><path class="cls-7" d="M247.69,273.21s12.06-13.27,28.83-15.86c16.61-2.57,27,.75,43.44,4.25,0,0-25.12-3.27-42.5-.61-16.06,2.45-29.77,12.22-29.77,12.22" transform="translate(-122.54 -163.34)"/><path class="cls-7" d="M248.66,261.37s4.78-9.58,21.56-12.17c16.6-2.57,27,.74,43.43,4.24,0,0-25.12-3.27-42.5-.6-16,2.45-22.49,8.53-22.49,8.53" transform="translate(-122.54 -163.34)"/><path class="cls-8" d="M272,214.09a.9.9,0,0,1-.24-1.63c1.57-1,4-2.43,5.63-2.43,4.09,0,5.35,3.88,4.29,5.37C280.89,216.49,275,215,272,214.09Z" transform="translate(-122.54 -163.34)"/><path class="cls-8" d="M265,213.81c.34.38.05.78-.41,1-1.44.74-2.87.39-4.65,1.32-5.67,3-3-5.57,2.3-4.3A6.3,6.3,0,0,1,265,213.81Z" transform="translate(-122.54 -163.34)"/><path class="cls-9" d="M272,214.09a.9.9,0,0,1-.24-1.63c1.57-1,4-2.43,5.63-2.43,4.09,0,5.35,3.88,4.29,5.37C280.89,216.49,275,215,272,214.09Z" transform="translate(-122.54 -163.34)"/><path class="cls-10" d="M265,213.81c.34.38.05.78-.41,1-1.44.74-2.87.39-4.65,1.32-5.67,3-3-5.57,2.3-4.3A6.3,6.3,0,0,1,265,213.81Z" transform="translate(-122.54 -163.34)"/><path class="cls-11" d="M185.87,396.49s-7.44,0-10,.27c-9.18.92-21.87,1.22-31.36-6.14-12-6.32-30.43,6.1-17.66,20.25,4.85,5.37,7.61,10.92,7.17,18.68-.74,13.34,5.81,23.5,16.65,20.08,15.41-4.86,5.72-14,19.79-19.52,8.33-3.78,15.55-3.26,20.54-7.64a15,15,0,0,0,4.44-6.74,15.57,15.57,0,0,0-9.53-19.22Z" transform="translate(-122.54 -163.34)"/><path class="cls-2" d="M286.58,533l-29.65.41S222.43,510,227.5,484.13l14.64-5.07A87.84,87.84,0,0,0,252.28,496C262.86,509.14,268.93,527.29,286.58,533Z" transform="translate(-122.54 -163.34)"/><path class="cls-12" d="M389.59,453.34s23.18-6.38,33.31-1.87h0s-9-9.58-31.53-9Z" transform="translate(-122.54 -163.34)"/><line class="cls-13" x1="268.82" y1="279.12" x2="267.7" y2="288.69"/><path class="cls-14" d="M409.43,204.15c-.56-4.5.56-9,2.25-13.48a90.54,90.54,0,0,1,8.42-16.28c12.35-18.53,40.42-10.11,58.39-1.12s24.7,24.7,15.16,44.91-29.76,23-42.67,23C439.19,241.2,412.8,236.15,409.43,204.15Z" transform="translate(-122.54 -163.34)"/><path class="cls-15" d="M477.28,209.41a8.35,8.35,0,0,1,4.94,3.09,3.59,3.59,0,0,0,5.69.29c2.16-3.46-.67-3.79-1.46-5.83s1.87-4.24-1.17-6c-1-.58-3.84,1.66-4.66,1.75a20.83,20.83,0,0,1-4.21-.26s-2.81-.68-4.56.36-1.09,4.12,0,5C473.6,209.14,477.28,209.41,477.28,209.41Z" transform="translate(-122.54 -163.34)"/><path id="hand-right" class="cls-16" d="M189.54,353.24c1.25,5.65,8,8.29,11.1,8.29,3.77,0,6-.87,9.12-4.64,3.77-3.76,6.1-9.74,5.08-14.77a9.49,9.49,0,0,0-4.55-5.63,6.39,6.39,0,0,0-3.17-.83h0c-3.67,0-9.72,3-14.1,7.77a8,8,0,0,0-.63.81c-1.31,2-3.44,5.49-2.85,9" transform="translate(-122.54 -163.34)"/><path class="cls-17" d="M210.88,330.82c-2.73,5.53-18.52,1.38-19.67.8-.32-.31-5.14-2.31-6.48-3.36a1.39,1.39,0,0,1,.76-2.49h0c4.6-1.15,19.73-9.8,27.78-15.55-1.72,4.6-5.44,12.27-4.87,15.14h0Z" transform="translate(-122.54 -163.34)"/><path class="cls-18" d="M276.26,523.13c-2.86-1.1-5.26-3.19-6.76-8.45-1.39-4.86-.75-10-.75-17.64,0-5.11,3-12.39-1.34-24.16-9.92-15.45-8.78-31.37-.61-37a19.66,19.66,0,0,1,8.17-2.55c9.67-.75,24.64,14.77,27.19,24.47,2.87,7.08,7.52,34.46,3.94,44.67C306.1,502.48,301.12,532.65,276.26,523.13Z" transform="translate(-122.54 -163.34)"/><path class="cls-17" d="M265.36,579.58c-24.5,5.62-50.54-4.59-65.86-16.85-8.68-7.14-13.78-14.29-13.27-20.42,0-6.63,3.06-10.72,8.17-12.25,7.66-2,19.4,3.06,27.06,15.83,6.63,11.74,19.4,17.87,35.74,17.35,31.65-.51,67.9-24,84.74-54.62A149,149,0,0,0,357.77,501c-12.25,36.25-50,68.41-92.41,78.62Z" transform="translate(-122.54 -163.34)"/><path class="cls-18" d="M266.36,338.47c11.12-6.33,34.86-14.5,34.86-14.5h0c-23.84,7.51-47.49-2.81-47.49-2.81-.51-.52-2-2.24-2.49-2.24a1.63,1.63,0,0,0-1.53,1.53c-2.87,12.48-19.25,16.67-26.28,17.34-4.64.44-11.2-.47-13.52-4.51a22.84,22.84,0,0,1-1.14-2.14c-3.13-7.15,2.66-22.43,8.59-30.4,21.59-26.62,48.62-36,80.34-36,22.53.37,39.32,10.6,51.06,18.77-1,.51,9,5.63,21,22.9,3,5.25,12.47,29.35,15.77,41.29,0,0,26.65,120.51-21.73,148.94-22.46,15.32-43.78,21.88-62.93,18.5,1-2.55,4-9.4,4.51-11.45,2-7.13,1.5-14.83,0-28,0-.51-3.43-10.8-3.94-11.82,8.68-17.87,31.82-25.07,40.5-25.58,4.69-.56,13.93,0,23.21,7.84a67.64,67.64,0,0,0,7.76-30.36c0-7.66-5.7-19.25-6-19.9-2.25-4.69-4.23-10.43-5.26-11.45l-3.19-4.13c-4.88-7.88-18.73-19.89-36.6-23.46-10.72-2-21.44,3.8-32.16,6.35a69,69,0,0,1-19.79,1c-5.61-.51-11.46-3.73-13.14-9.76-.18-8.08,2.82-11.45,9.58-16" transform="translate(-122.54 -163.34)"/><path class="cls-18" d="M304.7,323.5" transform="translate(-122.54 -163.34)"/><path class="cls-17" d="M429.38,286.26C406,317.39,378,310.05,378,310.05c-17.73-7-15.85-4.15-34.94-18.56l-4.36-4.91c-3.24-3.66.28-6.25,1.16-6.48,1.56-.33,4.47-.05,6.25-.21,12.65.57,21.43,2.78,32.15,2.78h30.63c5.35,0,13.25-.74,18-1a2.87,2.87,0,0,1,2.52,4.54Z" transform="translate(-122.54 -163.34)"/><path id="WordPress-blue2" class="cls-19" d="M364.74,388.81c-10.77-19.7-27.73-29-42-32.08-9.7-2.05-19.46,2.53-29.67,5.08-7.66,1.53-16.49,2.71-21.6,2.19-8.17-1-12.28-4.26-14-7.56-1-4.08-.83-8.42,2.49-12.55,4.74-6.22,29.74-16.54,41.24-19.92-25.9,6.2-43.34-1.48-50-5.05-6.92,17.49-26.41,21.76-33.55,20.63-2-.15-4.9-.87-6.43-2.4,0,0,2.33,1.81,2.87,3.24a8.11,8.11,0,0,1,.93,4.13c-.09,5.11-2.06,8.68-6.14,13.28-2.68,2.25-4.23,3.66-8.83,3.66-1.76,0-5-1.38-6.57-2.44,0,0-7.11,7.77-10.93,9.81-14.74,7.89-16.65,19.81-18.32,36.26-.62,6.17-6.91,17.41,3.59,26.42,0,0,4.31,2.81,9.13,6.21,19.43,23.37,23.94,31.57,27,39.23,0,.05,4.93,7.18,4.93,7.18,4.08,1.61,13,7.32,31.3,1.27,11.17-3.68,29.28,1.12,29.28,1.12.42-3.23-.62-6.75-1.13-10.84-4.22-11.4-15.06-28.15-1.57-39.79a17,17,0,0,1,8.17-2.55c12.25,0,22.7,15.67,28.32,26.91,8.82-9.58,18.92-19.75,39.61-21.32,7.66-1,13.83,1.56,22.27,7.19,4.44-3.62,7.82-16.69,7.82-25.37.51-9.19-1.38-21.85-6.89-30.73Z" transform="translate(-122.54 -163.34)"/><path class="cls-20" d="M259.1,358.72c-1.87,2.78-5,9.83,1.93,19.17,7.28,9.85,7.35,18.4,1.84,34.95-1.84,8.28-2.76,10.58-4.14,18.85-8.28-19.77-15.18-36.78-20.7-58.85,4.6-.92,10.12-1.38,7.36-4.6-.46-.46-25.29,2.3-25.75,2.3-1.84.46-2.3,2.76-2.3,2.76,0,1.84,0,1.84,5.52,1.38,1.38,7.81,2.3,11,5.52,22.53a157.59,157.59,0,0,0-5.52,38.62c-11.49-22.53-16.09-38.16-17-57.94,1.84-.91,3.68-.45,5.06-1.83.91-.92,1.37-3.22.46-3.68-4.14-1.38-7.36,1.84-11,2.76,1.64-2.58,8.58-9.66,12.74-13.95,0,.05-.06.1-.07.13,8.07-7.27,23.84-12.48,44.11-6.28a25.81,25.81,0,0,1,.23-5.8c-5.71-1.71-15.37-2.16-21.06-1.52-6.1.85-14.08,1.69-22.11,7.74-6.38,4.36-12.75,11.69-12.75,11.69-18.28,22.78-19.84,57.76,5.35,80.18,16.61,14.83,34.73,15.22,50.06,7.38.62-.32,3.4-2.57,3.4-2.57A33.29,33.29,0,0,1,262,441.57l2.07-9c4.41-18,9.41-30.21,12.6-45.47a37.94,37.94,0,0,0,.46-16.55c9.56,14.83,11.55,35.8,1.25,54.45l-1.92,3.53-3.75,5.1c3-.75,7.69.72,7.69.72L284,427a60.72,60.72,0,0,0,7.34-30.71c-.5-11.66-2.25-24.75-8-32.81a65.11,65.11,0,0,1-7.11.42,55.06,55.06,0,0,1-8.09-.65A18.13,18.13,0,0,1,259.1,358.72ZM195.73,383c.92,23.91,7.36,42.31,24.83,68.52C191.59,438.13,186.07,406.86,195.73,383Zm41.85,71.28a27.6,27.6,0,0,1-10.58-.92c-.92-11-1.84-24.83,3.68-49.21,10.11,26.21,21.15,45.53,21.61,45.53C250.45,451,244.93,453.77,237.58,454.23Z" transform="translate(-122.54 -163.34)"/><path class="cls-21" d="M370.81,457.66h0s6.48-21.4,2.26-33.79c0,0-3.12,19.72-7.9,22.25,0,0,4.8,2.15,5.64,11.54" transform="translate(-122.54 -163.34)"/><path class="cls-22" d="M370.81,457.66h0s6.48-21.4,2.26-33.79c0,0-3.12,19.72-7.9,22.25,0,0,4.8,2.15,5.64,11.54" transform="translate(-122.54 -163.34)"/><path class="cls-23" d="M303.29,460.25s8.68,32.33-2.4,54.85C300.89,515.1,321,492.2,303.29,460.25Z" transform="translate(-122.54 -163.34)"/><path class="cls-24" d="M193.61,358.81a10.92,10.92,0,0,0,10.54,2.12,11.73,11.73,0,0,1-12.26-.06Z" transform="translate(-122.54 -163.34)"/><path class="cls-25" d="M247.77,323.64s-5.91,9.29-16.05,12.39c-12,3.67-19.5-.58-19.5-.58s24.28,1.75,38.64-17" transform="translate(-122.54 -163.34)"/><path class="cls-26" d="M193,343.43s6.67-7.58,14.1-7.77,8.37,10.5,7.62,12.94h0s-.94-10.51-9.39-9.57S193,343.43,193,343.43Z" transform="translate(-122.54 -163.34)"/><ellipse class="cls-27" cx="323.42" cy="76.61" rx="9.7" ry="9.19"/><circle class="cls-27" cx="314.69" cy="93.25" r="6.13"/><circle class="cls-27" cx="301.96" cy="97.87" r="4.17"/><path class="cls-28" d="M449.77,190.37s-10.94-4.43-14.52,1.7-1.21,13.1-2.23,18.2c-.51,5.11,2.23,10.48,9.71,9.66,12.69-1.39,21.39,5.92,31.81-3.38,4.7-4.19,7.15-17.93,0-22.52C467.91,189.43,463.43,195.16,449.77,190.37Z" transform="translate(-122.54 -163.34)"/><path class="cls-15" d="M436.78,199.32a9.85,9.85,0,0,1-5.82-3.65c-2.06-2.92-5.86-1.8-6.7-.34-2.55,4.08.78,4.47,1.72,6.87s-2.2,5,1.37,7c1.21.69,4.53-1.94,5.5-2.06,2.26-.26,4.24.36,4.95.31,0,0,3.32.81,5.39-.42s1.28-4.85,0-5.9C441.11,199.64,436.78,199.32,436.78,199.32Z" transform="translate(-122.54 -163.34)"/><path class="cls-29" d="M265.58,362.42a36.49,36.49,0,0,0,17,1c9.66-1.67,23.93-6.12,31.32-6.83s18.13.92,29.35,8.16a59.6,59.6,0,0,1,16.54,15.78h0s-9.85-23.28-35.47-28.35S283.18,365.59,265.58,362.42Z" transform="translate(-122.54 -163.34)"/><path id="nose" class="cls-30" d="M245.88,305.86c-4.09,3.06-3.06,7.15,2,7.66,4,.5,6.06,0,9.7-2.55,4.78-3.32,5.62-9.7,0-9.19a34,34,0,0,0-11.74,4.08" transform="translate(-122.54 -163.34)"/><path id="eye-left" class="cls-30" d="M233.12,308.41a5.62,5.62,0,1,1-5.62-5.61,5.36,5.36,0,0,1,5.62,5.61" transform="translate(-122.54 -163.34)"/><path id="eye-right" class="cls-30" d="M295.91,293.1a5.62,5.62,0,1,1-5.61-5.62c3.57.51,5.61,2.55,5.61,5.62" transform="translate(-122.54 -163.34)"/><path id="nose-2" data-name="nose" class="cls-31" d="M245.38,304.91c-4.09,3.06-3.07,7.15,2,7.66,4,.5,6.05,0,9.7-2.55,4.78-3.32,5.62-9.7,0-9.19a33.92,33.92,0,0,0-11.74,4.08" transform="translate(-122.54 -163.34)"/><path id="eye-left-2" data-name="eye-left" class="cls-31" d="M232.61,307.46a5.62,5.62,0,1,1-5.61-5.61,5.35,5.35,0,0,1,5.61,5.61" transform="translate(-122.54 -163.34)"/><path id="eye-right-2" data-name="eye-right" class="cls-31" d="M295.41,292.15a5.62,5.62,0,1,1-5.62-5.62c3.58.51,5.62,2.55,5.62,5.62" transform="translate(-122.54 -163.34)"/><path class="cls-32" d="M345.75,373.94s-14.26-15-23.27-1.5S300,393.84,309,411.11s12.77,32.66,20.28,30.41,15.76-3.38,20.64-2.63,12,5.25,12,5.25,9.76-17.26,5.63-27.4S350.64,377.51,345.75,373.94Z" transform="translate(-122.54 -163.34)"/><path class="cls-33" d="M275.22,334.2c.15-.08,6.52-3,12.67-5.21,7.24-2.6,15.07-5.86,14.88-5.82-19.14,4.88-36.56,1.42-45.15-2-.14-.06-6.69-2.9-6.76-2.76-12,24-35.49,19.39-38.64,17l-1,1.7c5.12,5.77,4.84,11.94-1.22,19.24a61,61,0,0,0,5.35-3.75c2.4-3,2.82-11,14.69-12.56,9.27-1.22,12.83-6.37,19.59-12.71,1.25-1.17,2.7,1.24,1.15,4.15s-4.5,7.32-1.55,7.88,4.76-2.87,5.21-5.49c.33-1.87.19,1.27.33-3.66,0-.26.76-5.39,3.1-4.92,3.75.75,5.4,6.62,7.27,8.12S268.89,337.57,275.22,334.2Z" transform="translate(-122.54 -163.34)"/><g class="cls-34"><path class="cls-35" d="M346.78,269.11c-.53-.42-.51-.13-1.18-.72-.29-.25-.61-.57-1-.91s-.47-.8-.84-1.12-.85-.36-1.22-.67-.6-.66-1-1-.61-.66-1-1-.83-.4-1.19-.7-.55-.75-.92-1-.7-.56-1.07-.84-1-.24-1.32-.52-.49-.85-.86-1.13-.87-.34-1.24-.62-.62-.67-1-.94-.87-.34-1.24-.61-.8-.44-1.17-.71-.6-.71-1-1-.8-.44-1.18-.7-.76-.48-1.14-.74-.63-.69-1-.94-.87-.33-1.25-.58-.78-.45-1.17-.7-.66-.66-1-.9-.88-.31-1.27-.55-.64-.69-1-.93-.82-.39-1.22-.63l-1.17-.7c-.39-.23-.72-.57-1.11-.8s-.9-.26-1.3-.48-.83-.38-1.23-.6-.68-.65-1.08-.87-.93-.19-1.34-.4l-1.21-.64c-.4-.21-.81-.4-1.22-.6s-.77-.49-1.18-.69-.83-.37-1.24-.57-.69-.66-1.11-.85-.89-.24-1.3-.43-.88-.28-1.29-.46-.75-.58-1.17-.76-.86-.29-1.28-.47-.86-.3-1.29-.47-.89-.22-1.31-.39l-1.28-.48c-.43-.16-.77-.55-1.2-.71s-.94-.08-1.37-.23l-1.29-.45c-.43-.14-.84-.37-1.27-.51s-.92-.12-1.35-.25-.84-.4-1.27-.53-.83-.45-1.27-.56-.91-.12-1.36-.23-.92-.05-1.37-.15-.91-.08-1.36-.18-.88-.21-1.33-.3-.86-.33-1.31-.4-.92,0-1.37-.1-.89-.25-1.34-.31-.89-.21-1.35-.26-.91-.07-1.36-.11-.92,0-1.37,0-.91-.25-1.36-.27-.92.26-1.38.25-.91,0-1.36,0-.91.11-1.36.12-.92,0-1.37,0-.92-.15-1.38-.11-.89.23-1.34.28-.89.23-1.34.3-1-.23-1.41-.16-.89.33-1.34.41-.95,0-1.4.1-.88.41-1.32.5-.93.15-1.37.24-.91.25-1.35.35-.92.16-1.36.27-.92.2-1.35.33-.85.41-1.28.55-.92.2-1.34.36-.94.19-1.35.38-.81.48-1.21.7-.8.46-1.2.7-.84.4-1.22.67-.65.67-1,1-.64.65-1,1-.85.43-1.18.76-.63.67-.95,1-.5.77-.81,1.13-.51.77-.81,1.13-.51.76-.81,1.13-.83.52-1.12.89-.31.92-.59,1.3a12.07,12.07,0,0,0-.85,1.07c-.24.4-.47.8-.67,1.21s-.24.89-.41,1.31-.68.74-.82,1.16-.22.92-.34,1.35-.24.92-.35,1.33-.27.93-.38,1.32a5.88,5.88,0,0,1-.35,1.32,2.76,2.76,0,0,0-.7,1.15c-.11.37-.24.81-.36,1.29s.17.92.07,1.38-.22.85-.31,1.3-.31.83-.4,1.27-.23.86-.32,1.3-.29.85-.38,1.29a7.63,7.63,0,0,0-.16,1.41c0,.42,0,.9,0,1.4s.38.88.41,1.37-.12.92-.07,1.39.16.91.21,1.38,0,.93.11,1.39.23.91.29,1.37-.06.95,0,1.41.19.92.27,1.37.2.93.28,1.37.16.94.24,1.37.38.94.45,1.33c.17.91,0,1.48,0,1.41s-.14-.62-.39-1.33c-.14-.38-.24-.85-.41-1.32s-.51-.79-.66-1.23-.38-.87-.53-1.29-.12-1-.26-1.38c-.27-.77-.22-.65-.43-1.3-.16-.47-.37-.86-.53-1.24s-.36-.85-.54-1.22-.42-.8-.59-1.21a10.42,10.42,0,0,1-.55-1.25c-.1-.39-.09-.85-.16-1.34s.08-.86.06-1.35-.2-.85-.19-1.34-.06-.86,0-1.34.37-.85.4-1.32-.17-.91-.13-1.37.31-.87.35-1.32.12-.89.17-1.34,0-.9,0-1.35.13-.89.19-1.34-.19-.93-.12-1.38.55-.82.63-1.26-.2-1-.1-1.4.49-.81.6-1.25.31-.84.44-1.28.06-.92.2-1.35.47-.78.63-1.21.19-.88.36-1.3.26-.87.46-1.28.31-.85.52-1.26.48-.76.71-1.15.37-.84.62-1.22.79-.55,1.05-.92.44-.79.72-1.15.62-.64.92-1,.51-.74.82-1.07.67-.61,1-.92.54-.73.88-1,.82-.42,1.18-.7.56-.74.93-1,.72-.54,1.1-.8.87-.3,1.26-.55.62-.7,1-.93.76-.49,1.16-.71.84-.34,1.24-.55.9-.2,1.32-.4.81-.36,1.23-.55.79-.43,1.21-.61.75-.57,1.17-.74,1,.07,1.41-.06.77-.58,1.21-.69l1.32-.31c.44-.1.9-.12,1.34-.22s.91,0,1.36-.11.87-.28,1.32-.35.87-.26,1.32-.32.91,0,1.37,0,.88-.25,1.33-.29.92.21,1.37.18.89-.14,1.35-.16.9.12,1.35.11.9-.17,1.35-.17.89.22,1.35.23.91-.29,1.36-.26.89.15,1.35.18.91-.09,1.36,0,.86.45,1.31.5.9,0,1.36,0,.89.1,1.34.17.91,0,1.36,0,.87.26,1.31.35.9.12,1.34.21.87.24,1.31.33.86.3,1.3.4l1.31.34c.43.11.88.15,1.32.27s.85.27,1.29.4l1.29.41c.42.13.9.11,1.33.25s.83.35,1.27.5.82.35,1.25.5.91.13,1.34.29.75.55,1.18.71.89.18,1.32.34.82.38,1.24.55.92.14,1.34.31l1.25.54c.41.18.77.47,1.19.66s.78.46,1.19.65.79.43,1.2.63.87.25,1.28.44.85.32,1.26.52.84.34,1.24.54.67.68,1.07.89,1,.14,1.35.35.67.67,1.07.88.91.21,1.31.43.68.63,1.08.85.86.3,1.26.53.74.52,1.14.75.81.4,1.2.63.72.56,1.11.8.82.4,1.21.63.63.59,1.06.85.86.26,1.27.51l1.13.73c.37.23.79.4,1.18.65s.64.64,1,.89.79.42,1.18.67.75.47,1.13.73.66.61,1,.87.68.57,1.06.83.91.25,1.28.51.63.66,1,.93.66.61,1,.88l1.09.79c.35.26.83.37,1.2.64l1.07.8c.36.27.76.48,1.12.75s.59.7.95,1,.81.42,1.17.7.51.79.86,1.07.92.3,1.27.58.49.82.84,1.11.83.4,1.18.69.7.56,1,.86.59.69.93,1,.59.7.92,1,.86.39,1.19.69.45.84.78,1.15.74.53,1.06.84.61.66.94,1,.66.6,1,.91.72.55,1,.87.6.67.92,1,.66.61,1,.94.53.74.84,1.07.64.64.94,1,.75.54,1.05.88.37.87.67,1.21.84.47,1.13.81.45.8.73,1.15.55.72.83,1.08.51.74.78,1.1c-.68-.29-.58-.47-1.19-.9-.25-.28-.55-.58-.91-.91s-.79-.4-1.14-.7-.67-.54-1-.83l-1-.82c-.34-.27-.62-.62-1-.89s-.68-.56-1-.82-.75-.48-1.1-.74-.65-.61-1-.87-.82-.38-1.18-.63-.7-.54-1.05-.79-.64-.65-1-.89-.85-.39-1.18-.62-.84-.45-1.15-.66C347,269.59,347.3,269.51,346.78,269.11Z" transform="translate(-122.54 -163.34)"/></g><path class="cls-15" d="M235.23,279.35c-.66.68-1.4.35-2.29,1.68l-.42,4.24s-1.89-4.42-2.6-5.51a6.44,6.44,0,0,1-1.17-3.65,21.81,21.81,0,0,1,.21-2.87,13.63,13.63,0,0,1,1-3.23c.93-3.1-.86-6.12.28-8.87.53-1.26.8-1.18.8-1.18.75-.81,1.31-.89,1.74-1.64a11.48,11.48,0,0,0,1.12-2.11c-.15-2.27,4.55-11.44,14.73-17.27a42.45,42.45,0,0,1,21.78-5.43l7.22.94c40.33,4.08,76.15,39.94,75.64,38.92l-9-.19-2.11-7.28c-2.47-.4-7.67,3.38-9.18,1.38v-8.11c-.13-.93-2.11-1.07-3-.84l-5.63,1.45c-2.29.33-3,.77-4-1.3a56.82,56.82,0,0,0-.64-6.7c-.24-1.15-1.33-1.91-2.61-.7l-5.09,3.7c-1.4,1-2.43.72-2.67-.26l-1.77-5.32c-.22-1.3-1.2-1.1-2.26-.31l-4.52,2.23c-1.68.72-2.55.64-3.28-.43-1.12-1.65-1-4.64-1.31-6.59l-.09-1.22c-.08-.53-1.37-.61-1.75-.24l-5.42,5.25a1,1,0,0,1-1.62-.63l-1.51-6.65a.6.6,0,0,0-1.08-.22l-5.47,7.72a1.46,1.46,0,0,1-2.48-.44l-2.16-7.16a.62.62,0,0,0-1.18,0l-3.93,8.18a.9.9,0,0,1-1.64.1l-4.7-8.84a.58.58,0,0,0-1.08.17l-1.73,10.69a.91.91,0,0,1-1.65.35l-5.15-7.9a.74.74,0,0,0-1.36.36l-.52,9.24a.9.9,0,0,1-1.45.67l-5.45-4.17a.65.65,0,0,0-1,.57l.56,6.13c.14,1.09,0,2.07-2.15,2.63l-6.25-2,1.18,7.46s.61,2.85-1.32,3.57c-1.5.56-3,0-3.94.37-1.32.53,1.28,4.92,3.43,7.18A3,3,0,0,1,235.23,279.35Z" transform="translate(-122.54 -163.34)"/><path class="cls-36" d="M233.46,257.19c1.55-4.36,3.22-7.29,4.51-7.55,1.44-.29,3,0,4.37-1a2,2,0,0,0,.69-1.2c1.13-4.36,3.91-6.1,8.59-5.63,1.88.19,1.17-2.35,3.43-4s3.87-.49,7.27.58c1.74.55,3.82-5.63,8.87-2.59,1.4.84,1.83,2.82,2.86,3s1.4-1.45,3.15-2.46c3.84-2.2,5.83.88,8.26,3a6.66,6.66,0,0,1,4.88-1.48c3.56.66,3,3.57,5.25,3.76.78.06,2.08-.56,3.57-.66,2.29-.16,6,.47,7,3.94.3,1,.82,2.63,1.32,2.14,2-2,7.12-.92,7.12-.92-7.72-4.71-26.75-15-48.8-12.86-6.09.59-14.81.67-22.67,7.09C237.55,244.9,234.31,250.44,233.46,257.19Z" transform="translate(-122.54 -163.34)"/><g class="cls-37"><path class="cls-38" d="M407.17,246.06c-.15-.66-.29-.44-.53-1.24a12.31,12.31,0,0,0-.36-1.27c-.15-.38-.26-.81-.47-1.24s-.52-.7-.75-1.1-.39-.78-.66-1.16a11.77,11.77,0,0,0-.74-1.1c-.27-.33-.68-.55-1-.87s-.6-.63-1-.93-.51-.76-.88-1-.72-.52-1.11-.76-.84-.3-1.25-.5-.78-.41-1.2-.59-.81-.34-1.24-.48-.82-.34-1.26-.46-.84-.26-1.29-.35-.87-.11-1.32-.18-.89,0-1.35,0l-1.32-.11c-.44,0-.88-.2-1.33-.2s-.89.14-1.34.15-.92,0-1.37,0-.91-.09-1.36-.1-.91-.1-1.35-.12-.92,0-1.37,0-.92,0-1.36,0-.9-.19-1.34-.24-.92,0-1.36-.1-.89-.24-1.33-.32l-1.33-.28c-.46-.1-.92-.12-1.35-.22s-.87-.33-1.29-.44-.95-.07-1.36-.19-.87-.39-1.26-.53-.89-.39-1.25-.52c-.81-.31-.68-.81-1.19-.36s.05.35.48,1.11c.18.32.5.65.76,1.09s.39.75.65,1.16l.69,1.12c.22.35.48.71.73,1.1s.43.75.69,1.13.4.77.66,1.15l.76,1.09c.25.35.65.61.92,1s.59.65.85,1,.56.68.83,1,.36.83.63,1.19.59.65.87,1,.44.78.72,1.13.77.51,1.05.86.35.85.64,1.19.78.5,1.07.84.56.69.85,1,.55.69.84,1,.49.77.8,1.1.54.74.85,1.05.87.4,1.2.7.51.77.85,1.06.79.47,1.13.74.74.52,1.1.78.6.71,1,.95.85.35,1.23.58.74.53,1.13.73.86.32,1.26.49.87.25,1.29.4.78.55,1.2.67.91.13,1.34.22.91,0,1.35,0,.89.2,1.32.21a11.74,11.74,0,0,0,1.34-.05,9.47,9.47,0,0,0,1.33-.18,8.65,8.65,0,0,0,1.28-.39,8.32,8.32,0,0,0,1.18-.63,7.19,7.19,0,0,0,1.23-.55c.35-.28.5-.77.8-1.11s.78-.53,1-.92a8.49,8.49,0,0,0,.43-1.29,8.32,8.32,0,0,0,.52-1.26,9.45,9.45,0,0,0,.16-1.34c0-.44-.21-.88-.23-1.35s.1-.89,0-1.35-.22-.85-.33-1.3S407.31,246.5,407.17,246.06Z" transform="translate(-122.54 -163.34)"/></g><path class="cls-3" d="M392,355a4.71,4.71,0,0,1-1-.63c-.34-.51-.1-.38-.3-1.14-.08-.34-.25-.72-.38-1.18l-.33-1.18q-.17-.56-.36-1.17c-.12-.37-.46-.69-.59-1.1s-.14-.8-.28-1.2-.21-.78-.36-1.17-.12-.83-.28-1.21-.57-.65-.73-1-.16-.81-.33-1.19-.41-.71-.58-1.09-.51-.66-.69-1-.08-.86-.27-1.23-.32-.76-.52-1.12-.48-.67-.68-1-.46-.68-.67-1-.34-.76-.56-1.11-.75-.49-1-.83-.14-.9-.37-1.24-.73-.48-1-.82-.43-.69-.69-1-.37-.76-.63-1.07-.54-.62-.81-.93a7.37,7.37,0,0,0-.78-1,10,10,0,0,0-1.1-.64c-.29-.29-.41-.76-.71-1a8.36,8.36,0,0,1-1.08-.65c-.39-.33-.69-.76-.85-.89a4.35,4.35,0,0,0-.84-.88c-.26-.21-.61-.42-1-.7s-.74-.28-1.09-.53-.56-.56-.91-.79-.61-.52-1-.73-.7-.37-1.06-.57-.78-.22-1.15-.4-.53-.73-.9-.89-.89,0-1.26-.12-.7-.4-1.08-.53-.72-.4-1.11-.51-.78-.2-1.18-.28-.79-.21-1.18-.25-.85-.11-1.24-.13-.85.3-1.24.31-.85,0-1.23,0-.84.09-1.22.17a8.83,8.83,0,0,0-1.16.37,9.8,9.8,0,0,0-1.15.41,10,10,0,0,1-1.12.48c-.36.17-.75.33-1.14.52a1.38,1.38,0,0,0-.75,1.2,1.29,1.29,0,0,0,.73,1.16c.55.29.47.46,1,.75s.66.09,1.22.38.51.37,1.07.66.54.33,1.1.63.59.22,1.16.49c.11.05.51.29,1.08.66.3.2.66.43,1,.71s.71.42,1.06.7.64.54,1,.83.49.69.79,1,.61.58.88.91.63.58.88.93a12,12,0,0,1,.63,1.1,10.93,10.93,0,0,1,.53,1.16,7.64,7.64,0,0,1,.31,1.23c.07.39-.43.4-1.09.45a11.86,11.86,0,0,1-1.36.12,4,4,0,0,1-1.38-.15,11.93,11.93,0,0,0-1.05-.73c-.35-.17-.8-.18-1.22-.35s-.69-.49-1.11-.64-.85-.06-1.28-.19-.75-.35-1.17-.48l-1.21-.36c-.39-.11-.82-.16-1.24-.27s-.82-.12-1.25-.23-.78-.28-1.2-.39-.79-.26-1.21-.36-.75-.41-1.17-.51-.84-.07-1.26-.18-.84-.11-1.26-.21-.75-.41-1.17-.52-.81-.22-1.23-.32-.88,0-1.3-.05a7.45,7.45,0,0,0-1.13-.28c-.34-.06-.72-.22-1.14-.27s-.77-.15-1.17-.16a11.81,11.81,0,0,0-1.19,0c-.4,0-.76.35-1.12.44s-.9,0-1.18.2a1.58,1.58,0,0,0-.53,1.08c-.06.4.21.76.39,1.21a5.89,5.89,0,0,0,.48,1.2,11.12,11.12,0,0,0,.87,1c.29.33.51.74.82,1s.6.69.91,1,.81.49,1.12.73c.61.49.39.53.88,1s.61.19,1,.59.33.5.74.91l.84.81c.42.41.55.28,1,.68s.26.58.7,1,.43.44.91.82.52.32,1,.7.63.19,1.12.57.28.63.77,1a10.23,10.23,0,0,0,1,.73,4.25,4.25,0,0,0,1.19.53c.35.13.8.19,1.23.36s.76.37,1.16.53.84.25,1.22.4.84.32,1.19.47a6.75,6.75,0,0,1,1.12.59,5.54,5.54,0,0,1,.83.92c.34.42.74.69.8,1a.68.68,0,0,1-.66.83,17.8,17.8,0,0,1-1.68.61c-.39,0-1-.38-1.47-.35l-1.3.07c-.08,0-.54-.08-1.27-.2-.37-.06-.82-.14-1.3-.19s-.85,0-1.31-.06-.87-.07-1.32-.05-.84,0-1.28,0-.83.33-1.26.36-.87-.05-1.28,0-.86.25-1.26.29-.91,0-1.28.06c-.68.07-1.15,0-1.25.08-.39.19-.82.23-1.15.4s-.5.91-.49,1.35a1.14,1.14,0,0,0,.69,1c.59.3.56.36,1.14.67a9.18,9.18,0,0,1,1.06.7c.3.22.58.56,1,.84s.67.49,1,.75.83.28,1.18.53.54.74.89,1,.91.17,1.26.38.58.58,1,.82.63.52,1,.75.77.32,1.12.55.58.65.93.87.89.17,1.23.39.61.63.94.84.9.23,1.21.42a9.39,9.39,0,0,0,1,.59c.63.17.41.36,1.15.65.34.13.81.14,1.26.31s.77.33,1.2.49.84.17,1.26.32.78.35,1.19.5.74.52,1.15.66.88.14,1.27.27.81.43,1.18.54a10.38,10.38,0,0,1,1.19.38c.35.15.9-.05,1.32.14a2.3,2.3,0,0,0,1,.1c.35,0,.73,0,1.08,0a2.58,2.58,0,0,1,1.05.12c.13.07.68,0,1.3.08.42.05.85.25,1.27.3a6.54,6.54,0,0,1,1.25.21c.1.05.55-.15,1.14-.16.34,0,.74.19,1.15.18s.76-.13,1.14-.14.8-.1,1.14-.11a2.77,2.77,0,0,1,1.12.18c.39.49.4.28.86.93.21.28.36.69.65,1.08s.36.73.63,1.08.59.58.86.92.57.6.84.93.37.77.65,1.1.71.47,1,.79.37.78.66,1.1.71.47,1,.78.69.48,1,.79.38.79.69,1.08.63.55.94.84.63.55.95.83l.94.83c.32.27.7.47,1,.73s.54.67.88.92.68.49,1,.73.69.48,1,.71.82.27,1.18.49.74.39,1.11.59.67.52,1.05.7.75.37,1.14.53.76.37,1.15.51.81.24,1.21.36.82.17,1.23.26.79.37,1.2.42.87-.27,1.29-.25.82.19,1.24.17a10.23,10.23,0,0,0,1.24-.14c.42-.05.88.12,1.29,0s.78-.34,1.18-.48.74-.39,1.13-.56.81-.23,1.18-.44a8.88,8.88,0,0,0,1.08-.66,8.29,8.29,0,0,0,.86-.92,7.53,7.53,0,0,0,.87-.92c.24-.34.22-.83.41-1.2s.62-.64.77-1,.07-.86.17-1.26.17-.81.23-1.23.18-.82.21-1.23,0-.84,0-1.25,0-.84,0-1.25,0-.85,0-1.25,0-.86-.09-1.26,0-.89-.08-1.27-.49-.77-.61-1.13-.43-.72-.58-1.09,0-.88-.18-1.25a10.14,10.14,0,0,0-.58-1.08c-.19-.36-.41-.7-.64-1.05s-.56-.58-.83-.9-.39-.73-.69-1-.59-.55-.91-.83-.62-.51-1-.77-.63-.51-1-.74-.81-.2-1.18-.42-.69-.4-1.06-.6-.64-.5-1-.69-.83-.13-1.21-.32-.61-.58-1-.76-.77-.26-1.15-.43-.76-.29-1.14-.45-.67-.49-1.06-.65-.79-.2-1.18-.36-.7-.42-1.09-.57-.76-.28-1.15-.43-.82-.13-1.21-.28-.65-.56-1-.7l-1.16-.43c-.38-.14-.78-.24-1.17-.38S392.41,355.13,392,355Z" transform="translate(-122.54 -163.34)"/><path class="cls-3" d="M364.18,607.67c.66.21.62.55,1.38.19a3,3,0,0,0,1-1,7.67,7.67,0,0,0,.69-1.22c.17-.36.17-.86.34-1.35s.21-.84.35-1.33.45-.8.56-1.28.1-.87.18-1.31.24-.85.29-1.29-.16-.89-.13-1.33.1-.86.12-1.3,0-.87,0-1.31,0-.87,0-1.32,0-.87,0-1.31-.22-.86-.24-1.31.14-.87.12-1.32.08-.87.06-1.32-.09-.86-.12-1.3,0-.87,0-1.32-.14-.86-.16-1.3,0-.87,0-1.32-.15-.87-.16-1.31.16-.87.16-1.32-.27-.87-.26-1.32.19-.87.2-1.31l0-1.31c0-.44-.12-.88-.1-1.33s0-.87,0-1.31.14-.87.17-1.31.3-.85.34-1.29-.12-.89-.07-1.33.19-.85.25-1.29.05-.87.12-1.31.09-.87.16-1.31.35-.83.42-1.27.08-.87.16-1.31.17-.85.26-1.29.19-.85.28-1.28,0-.9.08-1.33.51-.78.62-1.21,0-.91.08-1.34.36-.81.48-1.24.09-.89.21-1.32a3.68,3.68,0,0,0,.33-1.27c0-.4-.08-.85-.16-1.32s-.36-.8-.47-1.24-.29-.82-.42-1.24-.11-.88-.24-1.29-.22-.88-.36-1.27-.35-.86-.48-1.21c-.28-.74-.25-.6-.49-1.2-.16-.43-.39-.83-.51-1.25s-.29-.87-.37-1.3a12.49,12.49,0,0,1-.06-1.36c-.05-.45-.19-.9-.21-1.34s.11-.9.14-1.34.14-.89.19-1.33.17-.88.25-1.31.2-.87.32-1.3.07-.92.21-1.34.3-.86.46-1.27.38-.82.56-1.22.41-.81.61-1.19.43-.81.65-1.18.58-.73.8-1.08.36-.92.58-1.22c.49-.68.26-.88.88-1.1.46.09,1,.28,1.38.39s.92.13,1.33.25.89.27,1.3.4.81.46,1.22.61.86.31,1.26.48.86.32,1.26.49.76.52,1.17.7l1.25.5c.41.17.89.17,1.32.34s.84.24,1.28.38.78.45,1.23.58.89.07,1.35.18.83.28,1.29.37.87.12,1.33.2.87.1,1.34.17.86.19,1.32.24.86.26,1.32.3.9-.15,1.36-.11.88.16,1.34.19.89,0,1.35,0l1.34,0c.44,0,.89.23,1.35.24s.9-.13,1.36-.12a6.43,6.43,0,0,0,1.32.36,8.08,8.08,0,0,0,1.34-.15,11.47,11.47,0,0,0,1.28-.38c.42-.11.86-.2,1.29-.35s.86-.22,1.28-.4.71-.55,1.11-.76.84-.29,1.23-.52.74-.48,1.12-.73.67-.58,1-.84.81-.38,1.17-.65.72-.51,1.07-.8.61-.64,1-.93l1-.88c.33-.29.6-.65.92-1s.69-.56,1-.87.66-.59,1-.91.52-.73.83-1.06.8-.46,1.1-.79.57-.68.86-1,.41-.82.69-1.16.73-.55,1-.9.58-.67.85-1,.45-.77.72-1.13.51-.73.77-1.08.47-.76.73-1.12.48-.74.74-1.11.73-.58,1-1,.41-.79.65-1.16.53-.72.77-1.09.23-.9.45-1.28.57-.7.79-1.08.31-.84.52-1.23.67-.66.88-1.05.26-.86.46-1.26.52-.74.71-1.14.39-.8.57-1.2.2-.89.37-1.29.25-.86.42-1.27.38-.81.53-1.22.35-.82.5-1.24.23-.86.37-1.28.4-.8.53-1.23.34-.83.45-1.25.24-.87.34-1.3-.05-.92,0-1.36.34-.83.42-1.27,0-.9.08-1.34.18-.86.23-1.3.24-.87.28-1.31.16-.89.18-1.33-.19-.9-.18-1.34.16-.89.15-1.33-.13-.89-.16-1.33,0-.89-.08-1.33-.28-.86-.35-1.3-.15-.87-.24-1.3-.12-.88-.23-1.31-.19-.87-.32-1.29-.15-.89-.31-1.3-.52-.75-.7-1.16-.21-.87-.41-1.27-.32-.84-.54-1.23-.48-.75-.72-1.13-.6-.67-.86-1-.56-.68-.84-1-.52-.72-.81-1.05-.55-.71-.86-1-.81-.43-1.14-.74-.57-.67-.92-1-.66-.58-1-.85-.65-.6-1-.86-.79-.4-1.17-.65-.69-.56-1.07-.79-.73-.5-1.13-.72-.76-.45-1.16-.65-.89-.19-1.3-.38-.78-.41-1.19-.58-.76-.49-1.18-.66-.92-.07-1.34-.22-.76-.48-1.19-.62-.85-.24-1.28-.38-.89-.11-1.32-.23-.77-.52-1.21-.64-.93.09-1.37,0l-1.3-.3c-.43-.1-.82-.41-1.26-.5-.67,0-.47.08-1.33.17-.37,0-.78.27-1.29.33s-.86-.12-1.34-.06-.82.32-1.29.38-.88-.1-1.34,0-.85.14-1.31.19l-1.31.16c-.43.06-.85.26-1.29.32l-1.32.16c-.43.06-.87.06-1.32.12s-.89-.05-1.34,0-.84.29-1.29.35-.89-.06-1.33,0-.83.39-1.27.46-.9,0-1.34,0l-1.3.23-1.31.19c-.43.07-.89,0-1.33.11s-.84.27-1.28.34-.88.1-1.32.18l-1.3.25c-.43.07-.86.19-1.3.27s-.84.32-1.27.4-.87.11-1.31.2-.91-.09-1.35,0-.83.36-1.26.44-.88.14-1.31.23-.89,0-1.33.14-.85.25-1.28.34-.88.15-1.31.25-.81.42-1.25.52-.88.12-1.31.22-.87.19-1.3.3-.91,0-1.34.12-.85.26-1.28.37-.85.27-1.28.38-.83.35-1.25.46-.89.13-1.31.25-.84.3-1.27.42-.9.09-1.32.21-.8.44-1.22.57-.84.31-1.26.45-.87.18-1.29.32-.88.16-1.3.3-.79.43-1.2.58-.8.41-1.21.57l-1.24.47c-.41.17-.93.09-1.33.26s-.75.51-1.15.69-.82.35-1.21.54-.77.44-1.16.64-.89.23-1.27.44-.76.48-1.13.71-.79.44-1.15.68-.66.62-1,.88-.71.55-1,.83a13.23,13.23,0,0,0-.87,1c-.34.3-.64.63-1,.94s-.85.42-1.16.73-.59.69-.89,1-.63.65-.92,1-.57.7-.86,1l-.86,1c-.28.36-.64.64-.91,1s-.44.8-.7,1.15-.48.77-.73,1.13-.56.71-.79,1.09-.51.74-.73,1.13-.25.89-.45,1.28-.57.72-.76,1.12-.21.89-.38,1.3-.57.74-.73,1.15,0,.94-.17,1.36-.42.8-.54,1.23-.29.85-.39,1.28-.14.9-.22,1.33-.14.89-.2,1.32-.22.89-.26,1.32,0,.91,0,1.34-.1.92-.08,1.35,0,.92.07,1.35.17.91.25,1.32.33.87.45,1.27a12.29,12.29,0,0,0,.43,1.26,4,4,0,0,1,.5,1.25c.06.39-.09.85-.05,1.36s.28.84.3,1.33-.23.88-.23,1.35.06.88.06,1.35.22.88.22,1.34-.18.89-.18,1.35.06.88,0,1.35-.07.88-.08,1.34.08.89.07,1.35-.11.89-.12,1.34.1.9.09,1.35-.06.89-.07,1.35,0,.89,0,1.35,0,.89,0,1.34,0,.89,0,1.35-.09.89-.1,1.34.09.9.09,1.35-.06.89-.06,1.35,0,.89,0,1.34,0,.89,0,1.34-.3.9-.3,1.35.06.9.06,1.35,0,.9,0,1.35-.05.89-.05,1.34.27.89.27,1.35,0,.89,0,1.35-.06.89-.05,1.35-.06.89-.05,1.35,0,.9,0,1.35-.12.9-.11,1.35c0,.68.17.51.1,1.36,0,.39-.12.84-.17,1.35s-.08.87-.13,1.35-.17.87-.23,1.34-.18.87-.24,1.33-.13.88-.2,1.34.11.93,0,1.38-.17.88-.26,1.33-.36.85-.45,1.3,0,.92-.12,1.36-.25.88-.37,1.32-.18.9-.31,1.33-.31.86-.47,1.28-.48.8-.65,1.21-.26.89-.46,1.29-.51.77-.74,1.14a13.1,13.1,0,0,1-.69,1.18c-.29.34-.67.6-.95.94s-.58.68-.85,1-.51.73-.79,1.07l-.84,1c-.28.35-.67.6-.94.94s-.32.89-.58,1.23-.71.58-1,.92-.51.73-.77,1.08-.57.69-.83,1-.59.68-.84,1-.46.77-.7,1.13-.33.86-.56,1.22-.65.65-.87,1-.35.84-.57,1.21-.47.76-.68,1.14-.46.77-.65,1.15-.31.85-.47,1.24-.38.82-.52,1.22-.43.82-.53,1.23a10.07,10.07,0,0,0,0,1.35,8.87,8.87,0,0,0-.19,1.3,8.11,8.11,0,0,0,.11,1.32,7,7,0,0,0,.37,1.28,7.76,7.76,0,0,0,.8,1.06c.25.37.36.84.64,1.18s.67.6,1,.92.66.6,1,.9.56.72.9,1,.82.41,1.18.65.64.69,1,.91.82.41,1.2.6.79.5,1.18.65a9.43,9.43,0,0,0,1.32.3,6,6,0,0,0,1.3.24c.66,0,1-.1,1.09-.43.34-.58.37-.57.75-1.13s.55-.44.93-1,.19-.68.57-1.24.51-.46.89-1,.43-.52.81-1.08.26-.64.64-1.2.56-.44.94-1,.19-.69.7-1.14c.35.14.46.47.59,1.05a7.36,7.36,0,0,1,.26,1.35c0,.42-.07.89-.08,1.37s-.14.89-.17,1.37.17.92.14,1.38-.34.9-.38,1.36-.06.92-.08,1.37,0,1,0,1.39.07,1,.09,1.37a6.7,6.7,0,0,0,.27,1.35,1.43,1.43,0,0,0,.71,1c.58.39.24.57,1,1,.35.18.81.32,1.31.52a12,12,0,0,0,1.31.5c.41.13.87.24,1.36.35s.92,0,1.4.07.89.13,1.38.17.9.14,1.39.15.91,0,1.4,0a3,3,0,0,0,1.3-.2,4.41,4.41,0,0,0,1-.83,8.67,8.67,0,0,0,.87-1c.25-.34.49-.71.73-1.1s.29-.83.52-1.22.65-.63.87-1,.42-.76.64-1.14.35-.81.58-1.19.43-.76.67-1.13.55-.69.81-1a12.32,12.32,0,0,1,.75-1.09,9.28,9.28,0,0,1,.88-1,.82.82,0,0,1,1.23.12,3.37,3.37,0,0,1,.66,1.16c.11.38,0,.86.11,1.33s.32.84.37,1.29,0,.89,0,1.33.11.89.13,1.32-.13.92-.12,1.33.16.94.16,1.33c0,.8-.23.65,0,1.26s.3.35,1,.8a10.13,10.13,0,0,0,1,.84,13.27,13.27,0,0,0,1.24.51,13,13,0,0,0,1.34.2,9.59,9.59,0,0,0,1.28.3,9.42,9.42,0,0,0,1.31.07,12.15,12.15,0,0,0,1.32-.11,19.59,19.59,0,0,1,2.63-.48A11.69,11.69,0,0,0,364.18,607.67Z" transform="translate(-122.54 -163.34)"/><path class="cls-39" d="M310.64,593.42s-4.5,7-1,12.41c0,0,4.65,5.54,6.93-3.36.48-1.86,2.19-4.36,2.13-4.94C318.7,597.53,317.6,591.76,310.64,593.42Z" transform="translate(-122.54 -163.34)"/><path class="cls-39" d="M329.86,604.22s-3.38,8.55,1.56,13.59c0,0,3.8,5.16,5.43-1.61.85-3.51,2.92-8.65,2.74-9.26C339.59,606.94,337.21,601,329.86,604.22Z" transform="translate(-122.54 -163.34)"/><path class="cls-39" d="M362,610.27c-1.44,2.26-2.62,5.74-6.08,7,0,0-7.13,1.63-3.43-6.8a14.93,14.93,0,0,0,.78-2.91,4.3,4.3,0,0,1,3.06-3.37,8.25,8.25,0,0,1,1.66-.26C361.62,603.72,364.55,606.17,362,610.27Z" transform="translate(-122.54 -163.34)"/><path class="cls-40" d="M299.72,324.44s-10.06.87-14.64,1c-20.13.7-33.82-7.08-32.66-6.76,10.84,3,28.44,4.86,42.37,2.39,15.35-2.72,23.71-11.11,25.06-13.23a26.55,26.55,0,0,1-3.38,7.88,31.83,31.83,0,0,1-3.56,4.51c4.88.94,7.33.65,15.83,6.14.13.09.15,0,0,0C324.35,325.29,317.65,321.53,299.72,324.44Z" transform="translate(-122.54 -163.34)"/><path id="sole-right" class="cls-18" d="M153.41,435.16A20.82,20.82,0,0,0,149.93,451c2.91,14.37,25.57,45.39,44.22,49.81a9.17,9.17,0,0,0,3.5.55c2.91,0,9.38-5.35,10-5.9,2.33-3.32,1.17-10.5-.58-14.37-5.25-11.06-21-39.8-29.14-45.88a23.86,23.86,0,0,0-12.82-4.43,13,13,0,0,0-11.66,4.43" transform="translate(-122.54 -163.34)"/><path class="cls-26" d="M328.74,326.4c-4.6-1.59-12.39-6.72-27.52-2.43-10.82,3.07-31,11.91-34.86,14.5-5.07,3.37-13.71,10.51-7.26,20.25,0,0-5.51-9.93,9.51-17.63,12.92-6.62,21.66-9.55,30.93-13.81,12.16-5.57,29.2-.88,29.2-.88" transform="translate(-122.54 -163.34)"/><polygon class="cls-36" points="230.71 110.04 240.1 118.07 234.75 117.22 230.71 110.04"/><path class="cls-39" d="M359.92,318.85s2.67,5.46-2.42,6.11h0s-5.64-2.79-10-3.11c-2.37-.17-3-.86,1.13-3s11.26,0,11.26,0" transform="translate(-122.54 -163.34)"/><path class="cls-39" d="M341.93,329.09c.12-.35,2.24,6.18-2.69,7.37,0,0-8.24-3-9.82-8.32C328.79,326,334.2,326.41,341.93,329.09Z" transform="translate(-122.54 -163.34)"/><path class="cls-39" d="M348.15,351.23s4.59,3.36-1.15,6.95c0,0-11.38-2.25-11.38-5.32S348.15,351.23,348.15,351.23Z" transform="translate(-122.54 -163.34)"/><path class="cls-41" d="M393.63,355.84s14.86,3.19,21.76,11.41a11,11,0,0,0-5.84-9c-1.85-1.06-2.39-1.59-11.94-2.39Z" transform="translate(-122.54 -163.34)"/><path class="cls-42" d="M398,388.26s12.11,5.91,17.46-2c0,0,0,5.74-8.73,9a65.48,65.48,0,0,0-8.44,3.95A15.68,15.68,0,0,1,398,388.26Z" transform="translate(-122.54 -163.34)"/><path class="cls-43" d="M327.74,377.7s-15.84,11.26-11,20.55c3.38,6.48,8.17-5.07,8.17-5.07s3.1-12.1,12.39-13.23C339.72,379.66,335.26,373.57,327.74,377.7Z" transform="translate(-122.54 -163.34)"/><path class="cls-43" d="M324.07,416.55s9.54,13.42,26.75,11.26c4.51-.56-1.4,12.85-17.21,2.16C322.1,422.18,324.07,416.55,324.07,416.55Z" transform="translate(-122.54 -163.34)"/><path class="cls-44" d="M319.85,419.09s1.41,11.26,12.39,14.92C332.24,434,324.64,429.5,319.85,419.09Z" transform="translate(-122.54 -163.34)"/><path class="cls-45" d="M327.36,366.81l-17.27,21s-8.26,11.64-1.13,23.28c0,0-10.79-13.14-.37-27C315.35,375.07,327.36,366.81,327.36,366.81Z" transform="translate(-122.54 -163.34)"/><path class="cls-33" d="M283.39,363.48l1.41,1.69c6.05-2.25,18.2-3.8,21.82-4.37,16.86-2.63,21.77-1.87,27,1.13,5.58,3.19,15.42,11.43,18.49,15.77,4.5,6.38,18.44,30.38,16.14,46.92-1.88,13.52-6.38,19.52-6.38,19.52l3.27,2s11-9.86,7.05-36a65,65,0,0,0-37.16-49.84c-15.77-7-27.6-2.53-27.6-2.53Z" transform="translate(-122.54 -163.34)"/><path class="cls-15" d="M335.1,388.37s7.49-2.7,10.14-3.38c9.57-2.43,22.43-6.77,29.28-17.64,9.7-10.72,32.81-5,25.15,13.89-2.91,7.18-3.64,13.76-.37,21.4,5.63,13.14,2.76,25.75-9.39,26.28-17.26.75-10.88-12-27-12.39-9.76-.75-16.82,2.42-23.44-.16a16.11,16.11,0,0,1-6.92-5.15,16.65,16.65,0,0,1,2.54-22.81Z" transform="translate(-122.54 -163.34)"/><path class="cls-46" d="M335.06,388.41s-11.83,8.43-.57,20.07c7.1,7.34,29.47,1.6,37.73,1.6s12.95,15.67,22,12.67,7.61-15.07,5.12-20.11,13.16,22.25-9.1,26.84c-13.75,2.84-18-12.74-22.67-12.74-8.64,0-15.39-.75-20.65.37s-14.26-1.87-17.27-10.88S332.26,391.24,335.06,388.41Z" transform="translate(-122.54 -163.34)"/><path class="cls-46" d="M397.94,366.06s7.21,4.72.75,17.64c-4.13,8.26.61,18.94.61,18.94s-9.25-8.43-7.37-14.43C394.9,378.72,403.19,380.7,397.94,366.06Z" transform="translate(-122.54 -163.34)"/><g class="cls-47"><path class="cls-48" d="M374.38,521c.2-.65.48-.26,1.08-.9.26-.28.47-.68.78-1.1s.58-.63.85-1,.35-.79.58-1.22.43-.76.63-1.19.42-.78.59-1.23.28-.83.42-1.28.2-.86.32-1.32.45-.8.55-1.26.16-.88.24-1.34,0-.91.06-1.38.14-.88.19-1.34c.66.13-.07.52.11,1.35.08.37.29.79.41,1.29s.18.85.31,1.32.4.8.53,1.25.3.83.44,1.27.17.88.32,1.32l.47,1.26c.15.42.11.92.28,1.35s.38.82.56,1.23.62.71.82,1.11.29.86.51,1.26.3.88.53,1.26.61.69.86,1.06.48.78.76,1.13.7.6,1,.93.66.61,1,.91.52.79.88,1.05a11.06,11.06,0,0,0,1.27.55c.39.22.69.64,1.11.8a8.42,8.42,0,0,0,1.32.41c.45.11,1-.1,1.41,0s.9.27,1.34.35.92.18,1.36.25.9.26,1.35.33.93.07,1.37.13.93.07,1.38.12.92.17,1.36.21.93.15,1.37.18.93.14,1.37.15,1,0,1.39,0,.95-.18,1.38-.19.95-.07,1.37-.09,1,0,1.37,0c.9-.1,1.21-.85,1.5-.23s-.57.22-1.37.62a10.17,10.17,0,0,1-1.18.64,12.8,12.8,0,0,1-1.25.52c-.4.11-.84.22-1.32.32s-.88,0-1.36.09-.87.08-1.34.12-.87.09-1.34.12-.88.14-1.35.14-.88-.15-1.35-.17-.9.23-1.37.2-.89-.06-1.35-.11-.87-.24-1.33-.3-.86-.25-1.32-.32-.92.08-1.37,0-.89-.11-1.34-.2-.81-.47-1.26-.58-.92,0-1.36-.14-.87-.22-1.31-.34l-1.31-.36c-.43-.12-.88-.19-1.32-.32s-.87-.24-1.3-.38-.85-.33-1.28-.47-.79-.46-1.23-.62l-1.27-.47c-.41-.15-.92-.09-1.35-.25s-.77-.49-1.2-.66-.85-.31-1.27-.48-.82-.37-1.24-.55-.8-.42-1.23-.61-1-.25-1.42-.44c-.16-.58.26-.63.28-1.24a6.16,6.16,0,0,0-.08-1.21C374.32,521.6,374.2,521.57,374.38,521Z" transform="translate(-122.54 -163.34)"/></g><g class="cls-37"><path class="cls-49" d="M361.06,328.64c-.19-.63.61.12,1.27.58.31.22.51.7.9,1s.82.34,1.18.64.65.58,1,.88.61.64.92,1,.7.57,1,.91.36.84.6,1.2a9.24,9.24,0,0,1,.76,1.08,5.31,5.31,0,0,1,.47,1.25,1,1,0,0,1-.54,1.19c-.32.11-.76-.16-1.3-.27a7,7,0,0,1-1.35-.06c-.38-.13-.69-.57-1.11-.75s-.89-.14-1.3-.33-.81-.34-1.21-.53-.7-.56-1.09-.77-.75-.48-1.12-.68-.87-.32-1.23-.52-.84-.44-1.16-.63c-.7-.42-1.74-.57-1.08-.59a4.19,4.19,0,0,1,1.32.1c.67.12.66.2,1.32.32s.69,0,1.36.1.65.22,1.32.34.68,0,1.35.14.83.76,1.21.2-.21-.51-.56-1.1l-.7-1.17c-.35-.58-.39-.56-.74-1.14a7.15,7.15,0,0,0-.75-1.13A2.6,2.6,0,0,1,361.06,328.64Z" transform="translate(-122.54 -163.34)"/></g><g class="cls-37"><path class="cls-50" d="M348.73,344.93c.2-.62.38,0,1.2.1a11,11,0,0,1,1.31.08c.39.06.81.18,1.27.3s.82.24,1.25.39.77.37,1.19.56.86.19,1.26.4.81.35,1.19.6.54.74.9,1,.71.48,1.05.78a12.73,12.73,0,0,1,1.1.76c.3.31.57.66.86,1a1,1,0,0,1,0,1.13.91.91,0,0,1-.95.48l-1.36-.25c-.68-.12-.69,0-1.37-.16s-.65-.3-1.33-.43-.69-.05-1.37-.18-.66-.19-1.34-.32-1.65.48-1.39-.16.75-.14,1.49-.18.76.2,1.5.16.84.19,1.52-.11-.48-.43-1.1-1c-.29-.3-.46-.83-.86-1.19s-.71-.62-1.1-.94-.79-.55-1.18-.84-.78-.59-1.18-.85a12.18,12.18,0,0,0-1.29-.67A6.34,6.34,0,0,0,348.73,344.93Z" transform="translate(-122.54 -163.34)"/></g><path class="cls-51" d="M406,363.06s13.51,11.26,1.69,23.65C407.7,386.71,414.46,373.75,406,363.06Z" transform="translate(-122.54 -163.34)"/><path class="cls-51" d="M402.07,362.77s9,9.3-.28,19.71C401.79,382.48,406,372.63,402.07,362.77Z" transform="translate(-122.54 -163.34)"/><path class="cls-51" d="M413.33,366.43s5.2,4.81,3.94,11.27c-1,5.06-3.94,6.75-3.94,6.75S418.82,376.85,413.33,366.43Z" transform="translate(-122.54 -163.34)"/><path class="cls-52" d="M430.41,398.34s-6.94,9.76-15.2,11.27c0,0,10.82,1.74,17.58-3.51C432.79,406.1,432.67,404,430.41,398.34Z" transform="translate(-122.54 -163.34)"/><path class="cls-52" d="M434.63,414a16.37,16.37,0,0,1-9.2,4.2s6.87,3.08,10.25,1.05C437,418.45,434.63,414,434.63,414Z" transform="translate(-122.54 -163.34)"/><path class="cls-52" d="M426.49,384.56s-6.31,3.94-8.41,8.4l9.46-3.15A11.76,11.76,0,0,0,426.49,384.56Z" transform="translate(-122.54 -163.34)"/><path class="cls-52" d="M438.86,430.25s-6.76,4.88-18.4,2.63c0,0,10.51,7.14,19.9,4.13Z" transform="translate(-122.54 -163.34)"/><path class="cls-52" d="M399.63,451.19s18.2,4.22,17.45,21.3c0,0-3.94-16.14-26.28-19.71Z" transform="translate(-122.54 -163.34)"/><path class="cls-52" d="M382.36,454.84s19.33,7,21.58,25c0,0-13.89-21.59-33.69-23Z" transform="translate(-122.54 -163.34)"/><path class="cls-53" d="M327.59,501.38s0,1.88,14.35,7.24-.13,38.58-7.45,42c-6,2.78-6.14-21.88-6.19-37.16C328.27,504.05,327.59,501.38,327.59,501.38Z" transform="translate(-122.54 -163.34)"/><path class="cls-52" d="M350.54,463s7.6-3.38,9.86-3.1c6.75.85,13.51,4.51,20.83,19.15,0,0-9.21-9.08-14.64-11.83C360,463.91,356.17,463,350.54,463Z" transform="translate(-122.54 -163.34)"/><path class="cls-52" d="M420.94,341.66S410,342.22,406,340c0,0,3.38,4.5,15,8.22Z" transform="translate(-122.54 -163.34)"/><polygon class="cls-52" points="298.39 169.31 287.41 168.75 297.83 164.81 298.39 169.31"/><path class="cls-54" d="M440.92,469.49l-9-13.52s8.45,1.13,10.14-14.08C442.05,441.89,443.74,457.1,440.92,469.49Z" transform="translate(-122.54 -163.34)"/><path class="cls-15" d="M380.11,241.14s11.82-9.85,20.83-.28,2.25,17.46-5.35,14.92C395.59,255.78,384.33,252.4,380.11,241.14Z" transform="translate(-122.54 -163.34)"/><path class="cls-55" d="M385.27,238l-6.67,3.29,4.51,5.44S379.35,241.7,385.27,238Z" transform="translate(-122.54 -163.34)"/><path class="cls-56" d="M396.29,240s-5.37-3.64-9.38,2.64a14.08,14.08,0,0,0-2.37,5.45c-.22,1.22,6.91,6.25,7.53,6,1.86-.61,3.47-2.31,5.25-6.88C399.15,242.52,396.29,240,396.29,240Z" transform="translate(-122.54 -163.34)"/><path class="cls-57" d="M396.29,240s-5.37-3.64-9.38,2.64a14.08,14.08,0,0,0-2.37,5.45c-.22,1.22,6.91,6.25,7.53,6,1.86-.61,3.47-2.31,5.25-6.88C399.15,242.52,396.29,240,396.29,240Z" transform="translate(-122.54 -163.34)"/><path class="cls-58" d="M283.39,363.48l1.41,1.69c-2.43.81-9.86,1.4-13.66,1-5.16-.57-12-2.11-13.65-9.71C257.49,356.44,261.57,366.15,283.39,363.48Z" transform="translate(-122.54 -163.34)"/><path class="cls-59" d="M387,249a9.45,9.45,0,0,1,3-6.65,4.25,4.25,0,0,1,4.8-1c1.79,1.27,1.09,4.57.42,5.57-1,1.49-2.08,3.81-4.47,4.23S387.46,250.68,387,249Z" transform="translate(-122.54 -163.34)"/><path class="cls-60" d="M393.93,242.56s-4.13,1.77-5.15,7.51C388.78,250.07,392.61,248.3,393.93,242.56Z" transform="translate(-122.54 -163.34)"/><circle class="cls-20" cx="269.6" cy="77.86" r="1.25"/><path class="cls-61" d="M391.1,572.17V573h-3.29v3.14h-.94v-7h4.7v.79h-3.76v2.27Z" transform="translate(-122.54 -163.34)"/><path class="cls-61" d="M393.36,569.11v4.16c0,.86.06,2.25,1.82,2.25,1.39,0,1.82-.78,1.82-2.25v-4.16h.93v4.28c0,2.85-2,2.92-2.75,2.92-2.56,0-2.76-1.72-2.76-2.92v-4.28Z" transform="translate(-122.54 -163.34)"/><path class="cls-61" d="M403.91,569.11h1.26L402.26,572l3.1,4.12h-1.24l-2.55-3.49-1.12,1.09v2.4h-.94v-7h.94v3.46Z" transform="translate(-122.54 -163.34)"/><path class="cls-61" d="M407,569.11v4.16c0,.86.06,2.25,1.82,2.25,1.39,0,1.81-.78,1.81-2.25v-4.16h.94v4.28c0,2.85-2,2.92-2.75,2.92-2.56,0-2.76-1.72-2.76-2.92v-4.28Z" transform="translate(-122.54 -163.34)"/><path class="cls-61" d="M414.08,569.11v7h-.94v-7Z" transform="translate(-122.54 -163.34)"/><path class="cls-61" d="M420.68,569.11c.72,0,3.32.08,3.32,3.47s-2.48,3.52-3.67,3.52h-2.22v-7Zm-1.63,6.2h1.31c1.8,0,2.64-.84,2.64-2.71,0-2.11-1.18-2.7-2.37-2.7h-1.58Z" transform="translate(-122.54 -163.34)"/><path class="cls-61" d="M426.24,569.11v7h-.94v-7Z" transform="translate(-122.54 -163.34)"/><path class="cls-61" d="M428.88,576.1h-.94v-7h1l3.72,5.54v-5.54h.93v7h-1l-3.73-5.54Z" transform="translate(-122.54 -163.34)"/><path class="cls-61" d="M438.28,568.9c1.55,0,3.33.86,3.33,3.7,0,3.66-2.9,3.71-3.33,3.71s-3.34,0-3.34-3.71C434.94,570.16,436.33,568.9,438.28,568.9Zm0,6.62c.48,0,2.33-.1,2.33-2.92,0-1.64-.73-2.91-2.33-2.91-2.14,0-2.34,2.15-2.34,2.91C435.94,573.73,436.28,575.52,438.28,575.52Z" transform="translate(-122.54 -163.34)"/><path class="cls-61" d="M443.46,573.88c0,.93.72,1.64,2,1.64s1.72-.63,1.72-1.3c0-.86-.76-1.09-1.41-1.23-1.6-.35-3-.48-3-2.08,0-1.32,1.07-2,2.65-2s2.51,1,2.59,2h-.94a1.48,1.48,0,0,0-1.68-1.24c-1,0-1.62.45-1.62,1.17s.83,1,1.75,1.16c1.25.24,2.66.5,2.66,2.18,0,2.09-2.18,2.11-2.76,2.11-1,0-2.78-.22-2.89-2.43Z" transform="translate(-122.54 -163.34)"/><path class="cls-61" d="M449.6,576.1h-1l2.65-7h1l2.64,7h-1l-.66-1.81h-3Zm3.36-2.6-1.22-3.44-1.22,3.44Z" transform="translate(-122.54 -163.34)"/><path class="cls-61" d="M456.51,569.11v4.16c0,.86.06,2.25,1.82,2.25,1.38,0,1.81-.78,1.81-2.25v-4.16h.94v4.28c0,2.85-2,2.92-2.75,2.92-2.56,0-2.76-1.72-2.76-2.92v-4.28Z" transform="translate(-122.54 -163.34)"/><path class="cls-61" d="M462.66,569.11h3.1c.76,0,2.31.11,2.31,1.88a1.67,1.67,0,0,1-1.19,1.72v0c.93.35,1,1,1,1.69,0,1,0,1.27.28,1.67h-1c-.24-.32-.25-.57-.25-1.48,0-.72-.08-1.49-1.32-1.49h-2v3h-.94Zm.94,3.23h2.1a1.24,1.24,0,0,0,1.38-1.26c0-.91-.64-1.18-1.52-1.18h-2Z" transform="translate(-122.54 -163.34)"/><path class="cls-61" d="M389.08,584.64H388v4.46h-.88v-4.46h-.94V584h.94v-.69c0-.88.43-1.27,1.34-1.27.19,0,.5,0,.65,0v.62a4.35,4.35,0,0,0-.62,0c-.48,0-.49.49-.49.7V584h1.11Z" transform="translate(-122.54 -163.34)"/><path class="cls-61" d="M394.09,589.1v-.72h0a2,2,0,0,1-1.72.92c-1.5,0-1.67-1.15-1.67-1.91V584h.88v3.1c0,1.28.44,1.55,1.07,1.55,1.48,0,1.46-1.53,1.46-1.89V584H395v5.07Z" transform="translate(-122.54 -163.34)"/><path class="cls-61" d="M400.46,584h1.05l-2,2,2.2,3.12h-1l-1.79-2.58-.86.85v1.73h-.88v-7H398v4.33Z" transform="translate(-122.54 -163.34)"/><path class="cls-61" d="M406.55,589.1v-.72h0a2,2,0,0,1-1.72.92c-1.5,0-1.67-1.15-1.67-1.91V584H404v3.1c0,1.28.44,1.55,1.07,1.55,1.48,0,1.46-1.53,1.46-1.89V584h.88v5.07Z" transform="translate(-122.54 -163.34)"/><path class="cls-61" d="M409.6,582.11h.88V583h-.88Zm.88,1.92v5.07h-.88V584Z" transform="translate(-122.54 -163.34)"/><path class="cls-61" d="M415.49,584.45c-1.18,0-1.87.49-1.95,1.77a2.44,2.44,0,0,0,0,.27v2.61h-.88V584h.88v1h0a1.8,1.8,0,0,1,1.68-1.17h.26Z" transform="translate(-122.54 -163.34)"/><path class="cls-61" d="M416.92,585.52c0-.68.36-1.69,2.16-1.69.82,0,2,.23,2,1.7l-.06,2.35c0,.39,0,.63.54.6v.62a1.48,1.48,0,0,1-.41,0c-.49,0-.79-.08-.9-.74a1.9,1.9,0,0,1-1.74.9c-1.07,0-1.79-.46-1.79-1.53,0-.88.45-1.42,2.49-1.61.75,0,1,0,1-.7,0-.24,0-1-1.14-1-.32,0-1.35,0-1.32,1.07Zm3.3,1c-.26.21-.56.17-1.12.25-.78.13-1.45.17-1.45,1a.9.9,0,0,0,1,.94c.69,0,1.49-.34,1.57-1.75Z" transform="translate(-122.54 -163.34)"/><path class="cls-61" d="M424.19,584v.69h0a2,2,0,0,1,1.68-.89c1.25,0,2.28.84,2.28,2.73s-1.1,2.74-2.26,2.74a1.9,1.9,0,0,1-1.67-.93V591h-.88V584Zm1.57,4.65c.71,0,1.49-.5,1.49-2.12,0-1.31-.54-2.11-1.54-2.11-.45,0-1.52.22-1.52,2.13C424.19,588.15,425.09,588.68,425.76,588.68Z" transform="translate(-122.54 -163.34)"/><path class="cls-61" d="M430.41,584v-1.52h.88V584h1.08v.61h-1.08v3.23c0,.37,0,.7.53.7a2,2,0,0,0,.55-.09v.62a2.41,2.41,0,0,1-.92.2c-1.05,0-1-.72-1-1.25v-3.41h-.91V584Z" transform="translate(-122.54 -163.34)"/><path class="cls-61" d="M436.25,583.83a2.75,2.75,0,1,1-2.5,2.73A2.43,2.43,0,0,1,436.25,583.83Zm0,4.85c.39,0,1.56-.09,1.56-2.13s-1.17-2.13-1.56-2.13-1.57.09-1.57,2.13S435.86,588.68,436.25,588.68Z" transform="translate(-122.54 -163.34)"/><path class="cls-61" d="M443.49,584.45c-1.18,0-1.87.49-1.95,1.77a2.44,2.44,0,0,0,0,.27v2.61h-.88V584h.88v1h0a1.8,1.8,0,0,1,1.68-1.17h.26Z" transform="translate(-122.54 -163.34)"/></g></g></svg>